<svg width="615" height="1146" viewBox="0 0 615 1146" fill="none" xmlns="http://www.w3.org/2000/svg">
<mask id="path-1-outside-1_2_444" maskUnits="userSpaceOnUse" x="0" y="0" width="615" height="1146" fill="black">
<rect fill="white" width="615" height="1146"/>
<path fill-rule="evenodd" clip-rule="evenodd" d="M95 40C95 25.0883 107.088 13 122 13H395C408.807 13 420 24.1929 420 38V556H587C595.284 556 602 562.716 602 571V1118C602 1126.28 595.284 1133 587 1133H367C358.716 1133 352 1126.28 352 1118V943H213C201.954 943 193 934.046 193 923V803H150C147.791 803 146 801.209 146 799V689H105C98.3726 689 93 683.627 93 677V531H32C21.5066 531 13 522.493 13 512V307C13 295.954 21.9543 287 33 287H95V40Z"/>
</mask>
<path fill-rule="evenodd" clip-rule="evenodd" d="M95 40C95 25.0883 107.088 13 122 13H395C408.807 13 420 24.1929 420 38V556H587C595.284 556 602 562.716 602 571V1118C602 1126.28 595.284 1133 587 1133H367C358.716 1133 352 1126.28 352 1118V943H213C201.954 943 193 934.046 193 923V803H150C147.791 803 146 801.209 146 799V689H105C98.3726 689 93 683.627 93 677V531H32C21.5066 531 13 522.493 13 512V307C13 295.954 21.9543 287 33 287H95V40Z" fill="#676B6E"/>
<path d="M420 556H407V569H420V556ZM352 943H365V930H352V943ZM193 803H206V790H193V803ZM146 689H159V676H146V689ZM93 531H106V518H93V531ZM95 287V300H108V287H95ZM122 0C99.9086 0 82 17.9086 82 40H108C108 32.268 114.268 26 122 26V0ZM395 0H122V26H395V0ZM433 38C433 17.0132 415.987 0 395 0V26C401.627 26 407 31.3726 407 38H433ZM433 556V38H407V556H433ZM587 543H420V569H587V543ZM615 571C615 555.536 602.464 543 587 543V569C588.105 569 589 569.895 589 571H615ZM615 1118V571H589V1118H615ZM587 1146C602.464 1146 615 1133.46 615 1118H589C589 1119.1 588.105 1120 587 1120V1146ZM367 1146H587V1120H367V1146ZM339 1118C339 1133.46 351.536 1146 367 1146V1120C365.895 1120 365 1119.1 365 1118H339ZM339 943V1118H365V943H339ZM213 956H352V930H213V956ZM180 923C180 941.225 194.775 956 213 956V930C209.134 930 206 926.866 206 923H180ZM180 803V923H206V803H180ZM150 816H193V790H150V816ZM133 799C133 808.389 140.611 816 150 816V790C154.971 790 159 794.029 159 799H133ZM133 689V799H159V689H133ZM105 702H146V676H105V702ZM80 677C80 690.807 91.1929 702 105 702V676C105.552 676 106 676.448 106 677H80ZM80 531V677H106V531H80ZM32 544H93V518H32V544ZM0 512C0 529.673 14.3269 544 32 544V518C28.6863 518 26 515.314 26 512H0ZM0 307V512H26V307H0ZM33 274C14.7746 274 0 288.775 0 307H26C26 303.134 29.134 300 33 300V274ZM95 274H33V300H95V274ZM82 40V287H108V40H82Z" fill="white" mask="url(#path-1-outside-1_2_444)"/>
<path d="M420 634L420 640L432 640L432 634L420 634ZM420 519L420 634L432 634L432 519L420 519Z" fill="white"/>
<path d="M352 812.5L352 806.5L340 806.5L340 812.5L352 812.5ZM352 958L352 812.5L340 812.5L340 958H352Z" fill="white"/>
<path d="M363 66C360.791 66 359 67.7909 359 70C359 72.2091 360.791 74 363 74V66ZM363 74H421V66H363V74Z" fill="white"/>
<path d="M363 124C360.791 124 359 125.791 359 128C359 130.209 360.791 132 363 132V124ZM363 132H421V124H363V132Z" fill="white"/>
<path d="M363 182C360.791 182 359 183.791 359 186C359 188.209 360.791 190 363 190V182ZM363 190H421V182H363V190Z" fill="white"/>
<path d="M363 240C360.791 240 359 241.791 359 244C359 246.209 360.791 248 363 248V240ZM363 248H421V240H363V248Z" fill="white"/>
<path d="M363 298C360.791 298 359 299.791 359 302C359 304.209 360.791 306 363 306V298ZM363 306H421V298H363V306Z" fill="white"/>
<path d="M363 356C360.791 356 359 357.791 359 360C359 362.209 360.791 364 363 364V356ZM363 364H421V356H363V364Z" fill="white"/>
<path d="M363 414C360.791 414 359 415.791 359 418C359 420.209 360.791 422 363 422V414ZM363 422H421V414H363V422Z" fill="white"/>
<path d="M363 472C360.791 472 359 473.791 359 476C359 478.209 360.791 480 363 480V472ZM363 480H421V472H363V480Z" fill="white"/>
<path d="M363 530C360.791 530 359 531.791 359 534C359 536.209 360.791 538 363 538V530ZM363 538H421V530H363V538Z" fill="white"/>
<path d="M363 588C360.791 588 359 589.791 359 592C359 594.209 360.791 596 363 596V588ZM363 596H421V588H363V596Z" fill="white"/>
<path d="M544 605C541.791 605 540 606.791 540 609C540 611.209 541.791 613 544 613V605ZM544 613H602V605H544V613Z" fill="white"/>
<path d="M544 664C541.791 664 540 665.791 540 668C540 670.209 541.791 672 544 672V664ZM544 672H602V664H544V672Z" fill="white"/>
<path d="M544 723C541.791 723 540 724.791 540 727C540 729.209 541.791 731 544 731V723ZM544 731H602V723H544V731Z" fill="white"/>
<path d="M544 782C541.791 782 540 783.791 540 786C540 788.209 541.791 790 544 790V782ZM544 790H602V782H544V790Z" fill="white"/>
<path d="M544 841C541.791 841 540 842.791 540 845C540 847.209 541.791 849 544 849V841ZM544 849H602V841H544V849Z" fill="white"/>
<path d="M544 900C541.791 900 540 901.791 540 904C540 906.209 541.791 908 544 908V900ZM544 908H602V900H544V908Z" fill="white"/>
<path d="M544 959C541.791 959 540 960.791 540 963C540 965.209 541.791 967 544 967V959ZM544 967H602V959H544V967Z" fill="white"/>
<path d="M544 1018C541.791 1018 540 1019.79 540 1022C540 1024.21 541.791 1026 544 1026V1018ZM544 1026H602V1018H544V1026Z" fill="white"/>
<path d="M544 1077C541.791 1077 540 1078.79 540 1081C540 1083.21 541.791 1085 544 1085V1077ZM544 1085H602V1077H544V1085Z" fill="white"/>
<path d="M410 1088C412.209 1088 414 1086.21 414 1084C414 1081.79 412.209 1080 410 1080L410 1088ZM410 1080L352 1080L352 1088L410 1088L410 1080Z" fill="white"/>
<path d="M410 1027C412.209 1027 414 1025.21 414 1023C414 1020.79 412.209 1019 410 1019L410 1027ZM410 1019L352 1019L352 1027L410 1027L410 1019Z" fill="white"/>
<path d="M410 966C412.209 966 414 964.209 414 962C414 959.791 412.209 958 410 958L410 966ZM410 958L352 958L352 966L410 966L410 958Z" fill="white"/>
<path d="M431 905H435V897H431V905ZM431 897H352V905H431V897Z" fill="white"/>
<path d="M401 847C401 844.791 399.209 843 397 843C394.791 843 393 844.791 393 847L401 847ZM393 847L393 905L401 905L401 847L393 847Z" fill="white"/>
<path d="M296 873C296 870.791 294.209 869 292 869C289.791 869 288 870.791 288 873L296 873ZM288 873L288 956L296 956L296 873L288 873Z" fill="white"/>
<path d="M242 870C242 867.791 240.209 866 238 866C235.791 866 234 867.791 234 870L242 870ZM234 870L234 953L242 953L242 870L234 870Z" fill="white"/>
<path d="M210 748C212.209 748 214 746.209 214 744C214 741.791 212.209 740 210 740L210 748ZM210 740L145 740L145 748L210 748L210 740Z" fill="white"/>
<path d="M164 581C166.209 581 168 579.209 168 577C168 574.791 166.209 573 164 573L164 581ZM164 573L81 573L81 581L164 581L164 573Z" fill="white"/>
<path d="M164 641C166.209 641 168 639.209 168 637C168 634.791 166.209 633 164 633L164 641ZM164 633L81 633L81 641L164 641L164 633Z" fill="white"/>
<path d="M89 353C91.2091 353 93 351.209 93 349C93 346.791 91.2091 345 89 345L89 353ZM89 345L6 345L6 353L89 353L89 345Z" fill="white"/>
<path d="M89 417C91.2091 417 93 415.209 93 413C93 410.791 91.2091 409 89 409L89 417ZM89 409L6 409L6 417L89 417L89 409Z" fill="white"/>
<path d="M89 481C91.2091 481 93 479.209 93 477C93 474.791 91.2091 473 89 473L89 481ZM89 473L6 473L6 481L89 481L89 473Z" fill="white"/>
<rect x="82" y="90" width="13" height="108" fill="#D9D9D9"/>
<path d="M308.295 36.3636V48H306.886V37.8409H306.818L303.977 39.7273V38.2955L306.886 36.3636H308.295ZM316.665 41.5568V42.8068H311.574V41.5568H316.665ZM323.092 36.3636V48H321.683V37.8409H321.615L318.774 39.7273V38.2955L321.683 36.3636H323.092Z" fill="white" fill-opacity="0.6"/>
<path d="M308.295 94.3636V106H306.886V95.8409H306.818L303.977 97.7273V96.2955L306.886 94.3636H308.295ZM316.665 99.5568V100.807H311.574V99.5568H316.665ZM318.455 106V104.977L322.295 100.773C322.746 100.28 323.117 99.8523 323.409 99.4886C323.701 99.1212 323.917 98.7765 324.057 98.4545C324.201 98.1288 324.273 97.7879 324.273 97.4318C324.273 97.0227 324.174 96.6686 323.977 96.3693C323.784 96.0701 323.519 95.839 323.182 95.6761C322.845 95.5133 322.466 95.4318 322.045 95.4318C321.598 95.4318 321.208 95.5246 320.875 95.7102C320.545 95.892 320.29 96.1477 320.108 96.4773C319.93 96.8068 319.841 97.1932 319.841 97.6364H318.5C318.5 96.9545 318.657 96.3561 318.972 95.8409C319.286 95.3258 319.714 94.9242 320.256 94.6364C320.801 94.3485 321.413 94.2045 322.091 94.2045C322.773 94.2045 323.377 94.3485 323.903 94.6364C324.43 94.9242 324.843 95.3125 325.142 95.8011C325.441 96.2898 325.591 96.8333 325.591 97.4318C325.591 97.8598 325.513 98.2784 325.358 98.6875C325.206 99.0928 324.941 99.5455 324.562 100.045C324.188 100.542 323.667 101.148 323 101.864L320.386 104.659V104.75H325.795V106H318.455Z" fill="white" fill-opacity="0.6"/>
<path d="M308.295 152.364V164H306.886V153.841H306.818L303.977 155.727V154.295L306.886 152.364H308.295ZM316.665 157.557V158.807H311.574V157.557H316.665ZM322.746 164.159C321.996 164.159 321.327 164.03 320.74 163.773C320.157 163.515 319.693 163.157 319.348 162.699C319.007 162.237 318.821 161.701 318.791 161.091H320.223C320.253 161.466 320.382 161.79 320.609 162.062C320.837 162.331 321.134 162.54 321.501 162.688C321.869 162.835 322.276 162.909 322.723 162.909C323.223 162.909 323.666 162.822 324.053 162.648C324.439 162.473 324.742 162.231 324.962 161.92C325.181 161.61 325.291 161.25 325.291 160.841C325.291 160.413 325.185 160.036 324.973 159.71C324.761 159.381 324.45 159.123 324.041 158.938C323.632 158.752 323.132 158.659 322.541 158.659H321.609V157.409H322.541C323.003 157.409 323.409 157.326 323.757 157.159C324.109 156.992 324.384 156.758 324.581 156.455C324.782 156.152 324.882 155.795 324.882 155.386C324.882 154.992 324.795 154.65 324.621 154.358C324.446 154.066 324.2 153.839 323.882 153.676C323.568 153.513 323.196 153.432 322.768 153.432C322.367 153.432 321.988 153.506 321.632 153.653C321.28 153.797 320.992 154.008 320.768 154.284C320.545 154.557 320.424 154.886 320.405 155.273H319.041C319.064 154.663 319.248 154.129 319.592 153.67C319.937 153.208 320.388 152.848 320.945 152.591C321.505 152.333 322.121 152.205 322.791 152.205C323.511 152.205 324.128 152.35 324.643 152.642C325.159 152.93 325.554 153.311 325.831 153.784C326.107 154.258 326.246 154.769 326.246 155.318C326.246 155.973 326.073 156.532 325.729 156.994C325.388 157.456 324.924 157.777 324.337 157.955V158.045C325.071 158.167 325.645 158.479 326.058 158.983C326.471 159.483 326.678 160.102 326.678 160.841C326.678 161.473 326.505 162.042 326.161 162.545C325.82 163.045 325.354 163.439 324.763 163.727C324.172 164.015 323.5 164.159 322.746 164.159Z" fill="white" fill-opacity="0.6"/>
<path d="M308.295 210.364V222H306.886V211.841H306.818L303.977 213.727V212.295L306.886 210.364H308.295ZM316.665 215.557V216.807H311.574V215.557H316.665ZM318.729 219.614V218.455L323.842 210.364H324.683V212.159H324.115L320.251 218.273V218.364H327.138V219.614H318.729ZM324.206 222V219.261V218.722V210.364H325.547V222H324.206Z" fill="white" fill-opacity="0.6"/>
<path d="M308.295 268.364V280H306.886V269.841H306.818L303.977 271.727V270.295L306.886 268.364H308.295ZM316.665 273.557V274.807H311.574V273.557H316.665ZM322.638 280.159C321.971 280.159 321.371 280.027 320.837 279.761C320.303 279.496 319.875 279.133 319.553 278.67C319.231 278.208 319.054 277.682 319.024 277.091H320.388C320.441 277.617 320.679 278.053 321.104 278.398C321.532 278.739 322.043 278.909 322.638 278.909C323.115 278.909 323.539 278.797 323.911 278.574C324.286 278.35 324.579 278.044 324.791 277.653C325.007 277.259 325.115 276.814 325.115 276.318C325.115 275.811 325.003 275.358 324.78 274.96C324.56 274.559 324.257 274.242 323.871 274.011C323.484 273.78 323.043 273.663 322.547 273.659C322.191 273.655 321.825 273.71 321.45 273.824C321.075 273.934 320.767 274.076 320.524 274.25L319.206 274.091L319.911 268.364H325.956V269.614H321.092L320.683 273.045H320.751C320.99 272.856 321.289 272.699 321.649 272.574C322.009 272.449 322.384 272.386 322.774 272.386C323.486 272.386 324.121 272.557 324.678 272.898C325.238 273.235 325.678 273.697 325.996 274.284C326.318 274.871 326.479 275.542 326.479 276.295C326.479 277.038 326.312 277.701 325.979 278.284C325.649 278.864 325.195 279.322 324.615 279.659C324.036 279.992 323.376 280.159 322.638 280.159Z" fill="white" fill-opacity="0.6"/>
<path d="M304.205 628V626.977L308.045 622.773C308.496 622.28 308.867 621.852 309.159 621.489C309.451 621.121 309.667 620.777 309.807 620.455C309.951 620.129 310.023 619.788 310.023 619.432C310.023 619.023 309.924 618.669 309.727 618.369C309.534 618.07 309.269 617.839 308.932 617.676C308.595 617.513 308.216 617.432 307.795 617.432C307.348 617.432 306.958 617.525 306.625 617.71C306.295 617.892 306.04 618.148 305.858 618.477C305.68 618.807 305.591 619.193 305.591 619.636H304.25C304.25 618.955 304.407 618.356 304.722 617.841C305.036 617.326 305.464 616.924 306.006 616.636C306.551 616.348 307.163 616.205 307.841 616.205C308.523 616.205 309.127 616.348 309.653 616.636C310.18 616.924 310.593 617.312 310.892 617.801C311.191 618.29 311.341 618.833 311.341 619.432C311.341 619.86 311.263 620.278 311.108 620.688C310.956 621.093 310.691 621.545 310.312 622.045C309.938 622.542 309.417 623.148 308.75 623.864L306.136 626.659V626.75H311.545V628H304.205ZM318.915 621.557V622.807H313.824V621.557H318.915ZM325.115 628.159C324.638 628.152 324.161 628.061 323.683 627.886C323.206 627.712 322.77 627.419 322.376 627.006C321.982 626.589 321.666 626.027 321.428 625.318C321.189 624.606 321.07 623.712 321.07 622.636C321.07 621.606 321.166 620.693 321.359 619.898C321.553 619.098 321.833 618.426 322.2 617.881C322.568 617.331 323.011 616.915 323.53 616.631C324.053 616.347 324.642 616.205 325.297 616.205C325.948 616.205 326.528 616.335 327.036 616.597C327.547 616.854 327.964 617.214 328.286 617.676C328.607 618.138 328.816 618.67 328.911 619.273H327.524C327.395 618.75 327.145 618.316 326.774 617.972C326.403 617.627 325.911 617.455 325.297 617.455C324.395 617.455 323.685 617.847 323.166 618.631C322.651 619.415 322.392 620.515 322.388 621.932H322.479C322.691 621.61 322.943 621.335 323.234 621.108C323.53 620.877 323.856 620.699 324.212 620.574C324.568 620.449 324.945 620.386 325.342 620.386C326.009 620.386 326.619 620.553 327.172 620.886C327.725 621.216 328.168 621.672 328.501 622.256C328.835 622.835 329.001 623.5 329.001 624.25C329.001 624.97 328.84 625.629 328.518 626.227C328.196 626.822 327.744 627.295 327.161 627.648C326.581 627.996 325.899 628.167 325.115 628.159ZM325.115 626.909C325.592 626.909 326.02 626.79 326.399 626.551C326.782 626.312 327.083 625.992 327.303 625.591C327.526 625.189 327.638 624.742 327.638 624.25C327.638 623.769 327.53 623.331 327.314 622.938C327.102 622.54 326.808 622.223 326.433 621.989C326.062 621.754 325.638 621.636 325.161 621.636C324.801 621.636 324.465 621.708 324.155 621.852C323.844 621.992 323.571 622.186 323.337 622.432C323.106 622.678 322.924 622.96 322.791 623.278C322.659 623.593 322.592 623.924 322.592 624.273C322.592 624.735 322.7 625.167 322.916 625.568C323.136 625.97 323.435 626.294 323.814 626.54C324.196 626.786 324.63 626.909 325.115 626.909Z" fill="white" fill-opacity="0.6"/>
<path d="M304.205 338V336.977L308.045 332.773C308.496 332.28 308.867 331.852 309.159 331.489C309.451 331.121 309.667 330.777 309.807 330.455C309.951 330.129 310.023 329.788 310.023 329.432C310.023 329.023 309.924 328.669 309.727 328.369C309.534 328.07 309.269 327.839 308.932 327.676C308.595 327.513 308.216 327.432 307.795 327.432C307.348 327.432 306.958 327.525 306.625 327.71C306.295 327.892 306.04 328.148 305.858 328.477C305.68 328.807 305.591 329.193 305.591 329.636H304.25C304.25 328.955 304.407 328.356 304.722 327.841C305.036 327.326 305.464 326.924 306.006 326.636C306.551 326.348 307.163 326.205 307.841 326.205C308.523 326.205 309.127 326.348 309.653 326.636C310.18 326.924 310.593 327.312 310.892 327.801C311.191 328.29 311.341 328.833 311.341 329.432C311.341 329.86 311.263 330.278 311.108 330.688C310.956 331.093 310.691 331.545 310.312 332.045C309.938 332.542 309.417 333.148 308.75 333.864L306.136 336.659V336.75H311.545V338H304.205ZM318.915 331.557V332.807H313.824V331.557H318.915ZM325.342 326.364V338H323.933V327.841H323.865L321.024 329.727V328.295L323.933 326.364H325.342Z" fill="white" fill-opacity="0.6"/>
<path d="M304.205 396V394.977L308.045 390.773C308.496 390.28 308.867 389.852 309.159 389.489C309.451 389.121 309.667 388.777 309.807 388.455C309.951 388.129 310.023 387.788 310.023 387.432C310.023 387.023 309.924 386.669 309.727 386.369C309.534 386.07 309.269 385.839 308.932 385.676C308.595 385.513 308.216 385.432 307.795 385.432C307.348 385.432 306.958 385.525 306.625 385.71C306.295 385.892 306.04 386.148 305.858 386.477C305.68 386.807 305.591 387.193 305.591 387.636H304.25C304.25 386.955 304.407 386.356 304.722 385.841C305.036 385.326 305.464 384.924 306.006 384.636C306.551 384.348 307.163 384.205 307.841 384.205C308.523 384.205 309.127 384.348 309.653 384.636C310.18 384.924 310.593 385.312 310.892 385.801C311.191 386.29 311.341 386.833 311.341 387.432C311.341 387.86 311.263 388.278 311.108 388.688C310.956 389.093 310.691 389.545 310.312 390.045C309.938 390.542 309.417 391.148 308.75 391.864L306.136 394.659V394.75H311.545V396H304.205ZM318.915 389.557V390.807H313.824V389.557H318.915ZM320.705 396V394.977L324.545 390.773C324.996 390.28 325.367 389.852 325.659 389.489C325.951 389.121 326.167 388.777 326.307 388.455C326.451 388.129 326.523 387.788 326.523 387.432C326.523 387.023 326.424 386.669 326.227 386.369C326.034 386.07 325.769 385.839 325.432 385.676C325.095 385.513 324.716 385.432 324.295 385.432C323.848 385.432 323.458 385.525 323.125 385.71C322.795 385.892 322.54 386.148 322.358 386.477C322.18 386.807 322.091 387.193 322.091 387.636H320.75C320.75 386.955 320.907 386.356 321.222 385.841C321.536 385.326 321.964 384.924 322.506 384.636C323.051 384.348 323.663 384.205 324.341 384.205C325.023 384.205 325.627 384.348 326.153 384.636C326.68 384.924 327.093 385.312 327.392 385.801C327.691 386.29 327.841 386.833 327.841 387.432C327.841 387.86 327.763 388.278 327.608 388.688C327.456 389.093 327.191 389.545 326.812 390.045C326.438 390.542 325.917 391.148 325.25 391.864L322.636 394.659V394.75H328.045V396H320.705Z" fill="white" fill-opacity="0.6"/>
<path d="M304.205 454V452.977L308.045 448.773C308.496 448.28 308.867 447.852 309.159 447.489C309.451 447.121 309.667 446.777 309.807 446.455C309.951 446.129 310.023 445.788 310.023 445.432C310.023 445.023 309.924 444.669 309.727 444.369C309.534 444.07 309.269 443.839 308.932 443.676C308.595 443.513 308.216 443.432 307.795 443.432C307.348 443.432 306.958 443.525 306.625 443.71C306.295 443.892 306.04 444.148 305.858 444.477C305.68 444.807 305.591 445.193 305.591 445.636H304.25C304.25 444.955 304.407 444.356 304.722 443.841C305.036 443.326 305.464 442.924 306.006 442.636C306.551 442.348 307.163 442.205 307.841 442.205C308.523 442.205 309.127 442.348 309.653 442.636C310.18 442.924 310.593 443.312 310.892 443.801C311.191 444.29 311.341 444.833 311.341 445.432C311.341 445.86 311.263 446.278 311.108 446.688C310.956 447.093 310.691 447.545 310.312 448.045C309.938 448.542 309.417 449.148 308.75 449.864L306.136 452.659V452.75H311.545V454H304.205ZM318.915 447.557V448.807H313.824V447.557H318.915ZM324.996 454.159C324.246 454.159 323.577 454.03 322.99 453.773C322.407 453.515 321.943 453.157 321.598 452.699C321.257 452.237 321.071 451.701 321.041 451.091H322.473C322.503 451.466 322.632 451.79 322.859 452.062C323.087 452.331 323.384 452.54 323.751 452.688C324.119 452.835 324.526 452.909 324.973 452.909C325.473 452.909 325.916 452.822 326.303 452.648C326.689 452.473 326.992 452.231 327.212 451.92C327.431 451.61 327.541 451.25 327.541 450.841C327.541 450.413 327.435 450.036 327.223 449.71C327.011 449.381 326.7 449.123 326.291 448.938C325.882 448.752 325.382 448.659 324.791 448.659H323.859V447.409H324.791C325.253 447.409 325.659 447.326 326.007 447.159C326.359 446.992 326.634 446.758 326.831 446.455C327.032 446.152 327.132 445.795 327.132 445.386C327.132 444.992 327.045 444.65 326.871 444.358C326.696 444.066 326.45 443.839 326.132 443.676C325.818 443.513 325.446 443.432 325.018 443.432C324.617 443.432 324.238 443.506 323.882 443.653C323.53 443.797 323.242 444.008 323.018 444.284C322.795 444.557 322.674 444.886 322.655 445.273H321.291C321.314 444.663 321.498 444.129 321.842 443.67C322.187 443.208 322.638 442.848 323.195 442.591C323.755 442.333 324.371 442.205 325.041 442.205C325.761 442.205 326.378 442.35 326.893 442.642C327.409 442.93 327.804 443.311 328.081 443.784C328.357 444.258 328.496 444.769 328.496 445.318C328.496 445.973 328.323 446.532 327.979 446.994C327.638 447.456 327.174 447.777 326.587 447.955V448.045C327.321 448.167 327.895 448.479 328.308 448.983C328.721 449.483 328.928 450.102 328.928 450.841C328.928 451.473 328.755 452.042 328.411 452.545C328.07 453.045 327.604 453.439 327.013 453.727C326.422 454.015 325.75 454.159 324.996 454.159Z" fill="white" fill-opacity="0.6"/>
<path d="M304.205 512V510.977L308.045 506.773C308.496 506.28 308.867 505.852 309.159 505.489C309.451 505.121 309.667 504.777 309.807 504.455C309.951 504.129 310.023 503.788 310.023 503.432C310.023 503.023 309.924 502.669 309.727 502.369C309.534 502.07 309.269 501.839 308.932 501.676C308.595 501.513 308.216 501.432 307.795 501.432C307.348 501.432 306.958 501.525 306.625 501.71C306.295 501.892 306.04 502.148 305.858 502.477C305.68 502.807 305.591 503.193 305.591 503.636H304.25C304.25 502.955 304.407 502.356 304.722 501.841C305.036 501.326 305.464 500.924 306.006 500.636C306.551 500.348 307.163 500.205 307.841 500.205C308.523 500.205 309.127 500.348 309.653 500.636C310.18 500.924 310.593 501.312 310.892 501.801C311.191 502.29 311.341 502.833 311.341 503.432C311.341 503.86 311.263 504.278 311.108 504.688C310.956 505.093 310.691 505.545 310.312 506.045C309.938 506.542 309.417 507.148 308.75 507.864L306.136 510.659V510.75H311.545V512H304.205ZM318.915 505.557V506.807H313.824V505.557H318.915ZM320.979 509.614V508.455L326.092 500.364H326.933V502.159H326.365L322.501 508.273V508.364H329.388V509.614H320.979ZM326.456 512V509.261V508.722V500.364H327.797V512H326.456Z" fill="white" fill-opacity="0.6"/>
<path d="M304.205 570V568.977L308.045 564.773C308.496 564.28 308.867 563.852 309.159 563.489C309.451 563.121 309.667 562.777 309.807 562.455C309.951 562.129 310.023 561.788 310.023 561.432C310.023 561.023 309.924 560.669 309.727 560.369C309.534 560.07 309.269 559.839 308.932 559.676C308.595 559.513 308.216 559.432 307.795 559.432C307.348 559.432 306.958 559.525 306.625 559.71C306.295 559.892 306.04 560.148 305.858 560.477C305.68 560.807 305.591 561.193 305.591 561.636H304.25C304.25 560.955 304.407 560.356 304.722 559.841C305.036 559.326 305.464 558.924 306.006 558.636C306.551 558.348 307.163 558.205 307.841 558.205C308.523 558.205 309.127 558.348 309.653 558.636C310.18 558.924 310.593 559.312 310.892 559.801C311.191 560.29 311.341 560.833 311.341 561.432C311.341 561.86 311.263 562.278 311.108 562.688C310.956 563.093 310.691 563.545 310.312 564.045C309.938 564.542 309.417 565.148 308.75 565.864L306.136 568.659V568.75H311.545V570H304.205ZM318.915 563.557V564.807H313.824V563.557H318.915ZM324.888 570.159C324.221 570.159 323.621 570.027 323.087 569.761C322.553 569.496 322.125 569.133 321.803 568.67C321.481 568.208 321.304 567.682 321.274 567.091H322.638C322.691 567.617 322.929 568.053 323.354 568.398C323.782 568.739 324.293 568.909 324.888 568.909C325.365 568.909 325.789 568.797 326.161 568.574C326.536 568.35 326.829 568.044 327.041 567.653C327.257 567.259 327.365 566.814 327.365 566.318C327.365 565.811 327.253 565.358 327.03 564.96C326.81 564.559 326.507 564.242 326.121 564.011C325.734 563.78 325.293 563.663 324.797 563.659C324.441 563.655 324.075 563.71 323.7 563.824C323.325 563.934 323.017 564.076 322.774 564.25L321.456 564.091L322.161 558.364H328.206V559.614H323.342L322.933 563.045H323.001C323.24 562.856 323.539 562.699 323.899 562.574C324.259 562.449 324.634 562.386 325.024 562.386C325.736 562.386 326.371 562.557 326.928 562.898C327.488 563.235 327.928 563.697 328.246 564.284C328.568 564.871 328.729 565.542 328.729 566.295C328.729 567.038 328.562 567.701 328.229 568.284C327.899 568.864 327.445 569.322 326.865 569.659C326.286 569.992 325.626 570.159 324.888 570.159Z" fill="white" fill-opacity="0.6"/>
<path d="M490.568 587L495.773 576.705V576.614H489.773V575.364H497.227V576.682L492.045 587H490.568ZM504.368 580.557V581.807H499.277V580.557H504.368ZM510.795 575.364V587H509.386V576.841H509.318L506.477 578.727V577.295L509.386 575.364H510.795Z" fill="white" fill-opacity="0.6"/>
<path d="M490.568 646L495.773 635.705V635.614H489.773V634.364H497.227V635.682L492.045 646H490.568ZM504.368 639.557V640.807H499.277V639.557H504.368ZM506.158 646V644.977L509.999 640.773C510.449 640.28 510.821 639.852 511.112 639.489C511.404 639.121 511.62 638.777 511.76 638.455C511.904 638.129 511.976 637.788 511.976 637.432C511.976 637.023 511.877 636.669 511.68 636.369C511.487 636.07 511.222 635.839 510.885 635.676C510.548 635.513 510.169 635.432 509.749 635.432C509.302 635.432 508.911 635.525 508.578 635.71C508.249 635.892 507.993 636.148 507.811 636.477C507.633 636.807 507.544 637.193 507.544 637.636H506.203C506.203 636.955 506.36 636.356 506.675 635.841C506.989 635.326 507.417 634.924 507.959 634.636C508.504 634.348 509.116 634.205 509.794 634.205C510.476 634.205 511.08 634.348 511.607 634.636C512.133 634.924 512.546 635.312 512.845 635.801C513.144 636.29 513.294 636.833 513.294 637.432C513.294 637.86 513.216 638.278 513.061 638.688C512.91 639.093 512.644 639.545 512.266 640.045C511.891 640.542 511.37 641.148 510.703 641.864L508.089 644.659V644.75H513.499V646H506.158Z" fill="white" fill-opacity="0.6"/>
<path d="M490.568 705L495.773 694.705V694.614H489.773V693.364H497.227V694.682L492.045 705H490.568ZM504.368 698.557V699.807H499.277V698.557H504.368ZM510.449 705.159C509.699 705.159 509.03 705.03 508.443 704.773C507.86 704.515 507.396 704.157 507.051 703.699C506.71 703.237 506.525 702.701 506.494 702.091H507.926C507.956 702.466 508.085 702.79 508.312 703.062C508.54 703.331 508.837 703.54 509.205 703.688C509.572 703.835 509.979 703.909 510.426 703.909C510.926 703.909 511.369 703.822 511.756 703.648C512.142 703.473 512.445 703.231 512.665 702.92C512.884 702.61 512.994 702.25 512.994 701.841C512.994 701.413 512.888 701.036 512.676 700.71C512.464 700.381 512.153 700.123 511.744 699.938C511.335 699.752 510.835 699.659 510.244 699.659H509.312V698.409H510.244C510.706 698.409 511.112 698.326 511.46 698.159C511.813 697.992 512.087 697.758 512.284 697.455C512.485 697.152 512.585 696.795 512.585 696.386C512.585 695.992 512.498 695.65 512.324 695.358C512.15 695.066 511.903 694.839 511.585 694.676C511.271 694.513 510.9 694.432 510.472 694.432C510.07 694.432 509.691 694.506 509.335 694.653C508.983 694.797 508.695 695.008 508.472 695.284C508.248 695.557 508.127 695.886 508.108 696.273H506.744C506.767 695.663 506.951 695.129 507.295 694.67C507.64 694.208 508.091 693.848 508.648 693.591C509.208 693.333 509.824 693.205 510.494 693.205C511.214 693.205 511.831 693.35 512.347 693.642C512.862 693.93 513.258 694.311 513.534 694.784C513.811 695.258 513.949 695.769 513.949 696.318C513.949 696.973 513.777 697.532 513.432 697.994C513.091 698.456 512.627 698.777 512.04 698.955V699.045C512.775 699.167 513.348 699.479 513.761 699.983C514.174 700.483 514.381 701.102 514.381 701.841C514.381 702.473 514.208 703.042 513.864 703.545C513.523 704.045 513.057 704.439 512.466 704.727C511.875 705.015 511.203 705.159 510.449 705.159Z" fill="white" fill-opacity="0.6"/>
<path d="M490.568 764L495.773 753.705V753.614H489.773V752.364H497.227V753.682L492.045 764H490.568ZM504.368 757.557V758.807H499.277V757.557H504.368ZM506.432 761.614V760.455L511.545 752.364H512.386V754.159H511.818L507.955 760.273V760.364H514.841V761.614H506.432ZM511.909 764V761.261V760.722V752.364H513.25V764H511.909Z" fill="white" fill-opacity="0.6"/>
<path d="M490.568 823L495.773 812.705V812.614H489.773V811.364H497.227V812.682L492.045 823H490.568ZM504.368 816.557V817.807H499.277V816.557H504.368ZM510.341 823.159C509.674 823.159 509.074 823.027 508.54 822.761C508.006 822.496 507.578 822.133 507.256 821.67C506.934 821.208 506.758 820.682 506.727 820.091H508.091C508.144 820.617 508.383 821.053 508.807 821.398C509.235 821.739 509.746 821.909 510.341 821.909C510.818 821.909 511.242 821.797 511.614 821.574C511.989 821.35 512.282 821.044 512.494 820.653C512.71 820.259 512.818 819.814 512.818 819.318C512.818 818.811 512.706 818.358 512.483 817.96C512.263 817.559 511.96 817.242 511.574 817.011C511.188 816.78 510.746 816.663 510.25 816.659C509.894 816.655 509.528 816.71 509.153 816.824C508.778 816.934 508.47 817.076 508.227 817.25L506.909 817.091L507.614 811.364H513.659V812.614H508.795L508.386 816.045H508.455C508.693 815.856 508.992 815.699 509.352 815.574C509.712 815.449 510.087 815.386 510.477 815.386C511.189 815.386 511.824 815.557 512.381 815.898C512.941 816.235 513.381 816.697 513.699 817.284C514.021 817.871 514.182 818.542 514.182 819.295C514.182 820.038 514.015 820.701 513.682 821.284C513.352 821.864 512.898 822.322 512.318 822.659C511.739 822.992 511.08 823.159 510.341 823.159Z" fill="white" fill-opacity="0.6"/>
<path d="M493.932 882.159C493.152 882.159 492.462 882.021 491.864 881.744C491.269 881.464 490.805 881.08 490.472 880.591C490.138 880.098 489.973 879.538 489.977 878.909C489.973 878.417 490.07 877.962 490.267 877.545C490.464 877.125 490.733 876.775 491.074 876.494C491.419 876.21 491.803 876.03 492.227 875.955V875.886C491.67 875.742 491.227 875.43 490.898 874.949C490.568 874.464 490.405 873.913 490.409 873.295C490.405 872.705 490.555 872.176 490.858 871.71C491.161 871.244 491.578 870.877 492.108 870.608C492.642 870.339 493.25 870.205 493.932 870.205C494.606 870.205 495.208 870.339 495.739 870.608C496.269 870.877 496.686 871.244 496.989 871.71C497.295 872.176 497.451 872.705 497.455 873.295C497.451 873.913 497.282 874.464 496.949 874.949C496.619 875.43 496.182 875.742 495.636 875.886V875.955C496.057 876.03 496.436 876.21 496.773 876.494C497.11 876.775 497.379 877.125 497.58 877.545C497.78 877.962 497.883 878.417 497.886 878.909C497.883 879.538 497.712 880.098 497.375 880.591C497.042 881.08 496.578 881.464 495.983 881.744C495.392 882.021 494.708 882.159 493.932 882.159ZM493.932 880.909C494.458 880.909 494.913 880.824 495.295 880.653C495.678 880.483 495.973 880.242 496.182 879.932C496.39 879.621 496.496 879.258 496.5 878.841C496.496 878.402 496.383 878.013 496.159 877.676C495.936 877.339 495.631 877.074 495.244 876.881C494.862 876.687 494.424 876.591 493.932 876.591C493.436 876.591 492.992 876.687 492.602 876.881C492.216 877.074 491.911 877.339 491.688 877.676C491.468 878.013 491.36 878.402 491.364 878.841C491.36 879.258 491.46 879.621 491.665 879.932C491.873 880.242 492.17 880.483 492.557 880.653C492.943 880.824 493.402 880.909 493.932 880.909ZM493.932 875.386C494.348 875.386 494.718 875.303 495.04 875.136C495.366 874.97 495.621 874.737 495.807 874.438C495.992 874.138 496.087 873.788 496.091 873.386C496.087 872.992 495.994 872.65 495.812 872.358C495.631 872.062 495.379 871.835 495.057 871.676C494.735 871.513 494.36 871.432 493.932 871.432C493.496 871.432 493.116 871.513 492.79 871.676C492.464 871.835 492.212 872.062 492.034 872.358C491.856 872.65 491.769 872.992 491.773 873.386C491.769 873.788 491.858 874.138 492.04 874.438C492.225 874.737 492.481 874.97 492.807 875.136C493.133 875.303 493.508 875.386 493.932 875.386ZM505.087 875.557V876.807H499.996V875.557H505.087ZM511.514 870.364V882H510.105V871.841H510.037L507.196 873.727V872.295L510.105 870.364H511.514Z" fill="white" fill-opacity="0.6"/>
<path d="M493.932 941.159C493.152 941.159 492.462 941.021 491.864 940.744C491.269 940.464 490.805 940.08 490.472 939.591C490.138 939.098 489.973 938.538 489.977 937.909C489.973 937.417 490.07 936.962 490.267 936.545C490.464 936.125 490.733 935.775 491.074 935.494C491.419 935.21 491.803 935.03 492.227 934.955V934.886C491.67 934.742 491.227 934.43 490.898 933.949C490.568 933.464 490.405 932.913 490.409 932.295C490.405 931.705 490.555 931.176 490.858 930.71C491.161 930.244 491.578 929.877 492.108 929.608C492.642 929.339 493.25 929.205 493.932 929.205C494.606 929.205 495.208 929.339 495.739 929.608C496.269 929.877 496.686 930.244 496.989 930.71C497.295 931.176 497.451 931.705 497.455 932.295C497.451 932.913 497.282 933.464 496.949 933.949C496.619 934.43 496.182 934.742 495.636 934.886V934.955C496.057 935.03 496.436 935.21 496.773 935.494C497.11 935.775 497.379 936.125 497.58 936.545C497.78 936.962 497.883 937.417 497.886 937.909C497.883 938.538 497.712 939.098 497.375 939.591C497.042 940.08 496.578 940.464 495.983 940.744C495.392 941.021 494.708 941.159 493.932 941.159ZM493.932 939.909C494.458 939.909 494.913 939.824 495.295 939.653C495.678 939.483 495.973 939.242 496.182 938.932C496.39 938.621 496.496 938.258 496.5 937.841C496.496 937.402 496.383 937.013 496.159 936.676C495.936 936.339 495.631 936.074 495.244 935.881C494.862 935.687 494.424 935.591 493.932 935.591C493.436 935.591 492.992 935.687 492.602 935.881C492.216 936.074 491.911 936.339 491.688 936.676C491.468 937.013 491.36 937.402 491.364 937.841C491.36 938.258 491.46 938.621 491.665 938.932C491.873 939.242 492.17 939.483 492.557 939.653C492.943 939.824 493.402 939.909 493.932 939.909ZM493.932 934.386C494.348 934.386 494.718 934.303 495.04 934.136C495.366 933.97 495.621 933.737 495.807 933.438C495.992 933.138 496.087 932.788 496.091 932.386C496.087 931.992 495.994 931.65 495.812 931.358C495.631 931.062 495.379 930.835 495.057 930.676C494.735 930.513 494.36 930.432 493.932 930.432C493.496 930.432 493.116 930.513 492.79 930.676C492.464 930.835 492.212 931.062 492.034 931.358C491.856 931.65 491.769 931.992 491.773 932.386C491.769 932.788 491.858 933.138 492.04 933.438C492.225 933.737 492.481 933.97 492.807 934.136C493.133 934.303 493.508 934.386 493.932 934.386ZM505.087 934.557V935.807H499.996V934.557H505.087ZM506.876 941V939.977L510.717 935.773C511.168 935.28 511.539 934.852 511.831 934.489C512.123 934.121 512.339 933.777 512.479 933.455C512.623 933.129 512.695 932.788 512.695 932.432C512.695 932.023 512.596 931.669 512.399 931.369C512.206 931.07 511.941 930.839 511.604 930.676C511.267 930.513 510.888 930.432 510.467 930.432C510.02 930.432 509.63 930.525 509.297 930.71C508.967 930.892 508.712 931.148 508.53 931.477C508.352 931.807 508.263 932.193 508.263 932.636H506.922C506.922 931.955 507.079 931.356 507.393 930.841C507.708 930.326 508.136 929.924 508.678 929.636C509.223 929.348 509.835 929.205 510.513 929.205C511.195 929.205 511.799 929.348 512.325 929.636C512.852 929.924 513.265 930.312 513.564 930.801C513.863 931.29 514.013 931.833 514.013 932.432C514.013 932.86 513.935 933.278 513.78 933.688C513.628 934.093 513.363 934.545 512.984 935.045C512.609 935.542 512.089 936.148 511.422 936.864L508.808 939.659V939.75H514.217V941H506.876Z" fill="white" fill-opacity="0.6"/>
<path d="M493.932 1000.16C493.152 1000.16 492.462 1000.02 491.864 999.744C491.269 999.464 490.805 999.08 490.472 998.591C490.138 998.098 489.973 997.538 489.977 996.909C489.973 996.417 490.07 995.962 490.267 995.545C490.464 995.125 490.733 994.775 491.074 994.494C491.419 994.21 491.803 994.03 492.227 993.955V993.886C491.67 993.742 491.227 993.43 490.898 992.949C490.568 992.464 490.405 991.913 490.409 991.295C490.405 990.705 490.555 990.176 490.858 989.71C491.161 989.244 491.578 988.877 492.108 988.608C492.642 988.339 493.25 988.205 493.932 988.205C494.606 988.205 495.208 988.339 495.739 988.608C496.269 988.877 496.686 989.244 496.989 989.71C497.295 990.176 497.451 990.705 497.455 991.295C497.451 991.913 497.282 992.464 496.949 992.949C496.619 993.43 496.182 993.742 495.636 993.886V993.955C496.057 994.03 496.436 994.21 496.773 994.494C497.11 994.775 497.379 995.125 497.58 995.545C497.78 995.962 497.883 996.417 497.886 996.909C497.883 997.538 497.712 998.098 497.375 998.591C497.042 999.08 496.578 999.464 495.983 999.744C495.392 1000.02 494.708 1000.16 493.932 1000.16ZM493.932 998.909C494.458 998.909 494.913 998.824 495.295 998.653C495.678 998.483 495.973 998.242 496.182 997.932C496.39 997.621 496.496 997.258 496.5 996.841C496.496 996.402 496.383 996.013 496.159 995.676C495.936 995.339 495.631 995.074 495.244 994.881C494.862 994.687 494.424 994.591 493.932 994.591C493.436 994.591 492.992 994.687 492.602 994.881C492.216 995.074 491.911 995.339 491.688 995.676C491.468 996.013 491.36 996.402 491.364 996.841C491.36 997.258 491.46 997.621 491.665 997.932C491.873 998.242 492.17 998.483 492.557 998.653C492.943 998.824 493.402 998.909 493.932 998.909ZM493.932 993.386C494.348 993.386 494.718 993.303 495.04 993.136C495.366 992.97 495.621 992.737 495.807 992.438C495.992 992.138 496.087 991.788 496.091 991.386C496.087 990.992 495.994 990.65 495.812 990.358C495.631 990.062 495.379 989.835 495.057 989.676C494.735 989.513 494.36 989.432 493.932 989.432C493.496 989.432 493.116 989.513 492.79 989.676C492.464 989.835 492.212 990.062 492.034 990.358C491.856 990.65 491.769 990.992 491.773 991.386C491.769 991.788 491.858 992.138 492.04 992.438C492.225 992.737 492.481 992.97 492.807 993.136C493.133 993.303 493.508 993.386 493.932 993.386ZM505.087 993.557V994.807H499.996V993.557H505.087ZM511.168 1000.16C510.418 1000.16 509.749 1000.03 509.162 999.773C508.579 999.515 508.115 999.157 507.77 998.699C507.429 998.237 507.243 997.701 507.213 997.091H508.645C508.675 997.466 508.804 997.79 509.031 998.062C509.259 998.331 509.556 998.54 509.923 998.688C510.291 998.835 510.698 998.909 511.145 998.909C511.645 998.909 512.088 998.822 512.474 998.648C512.861 998.473 513.164 998.231 513.384 997.92C513.603 997.61 513.713 997.25 513.713 996.841C513.713 996.413 513.607 996.036 513.395 995.71C513.183 995.381 512.872 995.123 512.463 994.938C512.054 994.752 511.554 994.659 510.963 994.659H510.031V993.409H510.963C511.425 993.409 511.83 993.326 512.179 993.159C512.531 992.992 512.806 992.758 513.003 992.455C513.204 992.152 513.304 991.795 513.304 991.386C513.304 990.992 513.217 990.65 513.043 990.358C512.868 990.066 512.622 989.839 512.304 989.676C511.99 989.513 511.618 989.432 511.19 989.432C510.789 989.432 510.41 989.506 510.054 989.653C509.702 989.797 509.414 990.008 509.19 990.284C508.967 990.557 508.846 990.886 508.827 991.273H507.463C507.486 990.663 507.67 990.129 508.014 989.67C508.359 989.208 508.81 988.848 509.366 988.591C509.927 988.333 510.543 988.205 511.213 988.205C511.933 988.205 512.55 988.35 513.065 988.642C513.58 988.93 513.976 989.311 514.253 989.784C514.529 990.258 514.668 990.769 514.668 991.318C514.668 991.973 514.495 992.532 514.151 992.994C513.81 993.456 513.346 993.777 512.759 993.955V994.045C513.493 994.167 514.067 994.479 514.48 994.983C514.893 995.483 515.099 996.102 515.099 996.841C515.099 997.473 514.927 998.042 514.582 998.545C514.241 999.045 513.776 999.439 513.185 999.727C512.594 1000.02 511.921 1000.16 511.168 1000.16Z" fill="white" fill-opacity="0.6"/>
<path d="M493.932 1059.16C493.152 1059.16 492.462 1059.02 491.864 1058.74C491.269 1058.46 490.805 1058.08 490.472 1057.59C490.138 1057.1 489.973 1056.54 489.977 1055.91C489.973 1055.42 490.07 1054.96 490.267 1054.55C490.464 1054.12 490.733 1053.77 491.074 1053.49C491.419 1053.21 491.803 1053.03 492.227 1052.95V1052.89C491.67 1052.74 491.227 1052.43 490.898 1051.95C490.568 1051.46 490.405 1050.91 490.409 1050.3C490.405 1049.7 490.555 1049.18 490.858 1048.71C491.161 1048.24 491.578 1047.88 492.108 1047.61C492.642 1047.34 493.25 1047.2 493.932 1047.2C494.606 1047.2 495.208 1047.34 495.739 1047.61C496.269 1047.88 496.686 1048.24 496.989 1048.71C497.295 1049.18 497.451 1049.7 497.455 1050.3C497.451 1050.91 497.282 1051.46 496.949 1051.95C496.619 1052.43 496.182 1052.74 495.636 1052.89V1052.95C496.057 1053.03 496.436 1053.21 496.773 1053.49C497.11 1053.77 497.379 1054.12 497.58 1054.55C497.78 1054.96 497.883 1055.42 497.886 1055.91C497.883 1056.54 497.712 1057.1 497.375 1057.59C497.042 1058.08 496.578 1058.46 495.983 1058.74C495.392 1059.02 494.708 1059.16 493.932 1059.16ZM493.932 1057.91C494.458 1057.91 494.913 1057.82 495.295 1057.65C495.678 1057.48 495.973 1057.24 496.182 1056.93C496.39 1056.62 496.496 1056.26 496.5 1055.84C496.496 1055.4 496.383 1055.01 496.159 1054.68C495.936 1054.34 495.631 1054.07 495.244 1053.88C494.862 1053.69 494.424 1053.59 493.932 1053.59C493.436 1053.59 492.992 1053.69 492.602 1053.88C492.216 1054.07 491.911 1054.34 491.688 1054.68C491.468 1055.01 491.36 1055.4 491.364 1055.84C491.36 1056.26 491.46 1056.62 491.665 1056.93C491.873 1057.24 492.17 1057.48 492.557 1057.65C492.943 1057.82 493.402 1057.91 493.932 1057.91ZM493.932 1052.39C494.348 1052.39 494.718 1052.3 495.04 1052.14C495.366 1051.97 495.621 1051.74 495.807 1051.44C495.992 1051.14 496.087 1050.79 496.091 1050.39C496.087 1049.99 495.994 1049.65 495.812 1049.36C495.631 1049.06 495.379 1048.84 495.057 1048.68C494.735 1048.51 494.36 1048.43 493.932 1048.43C493.496 1048.43 493.116 1048.51 492.79 1048.68C492.464 1048.84 492.212 1049.06 492.034 1049.36C491.856 1049.65 491.769 1049.99 491.773 1050.39C491.769 1050.79 491.858 1051.14 492.04 1051.44C492.225 1051.74 492.481 1051.97 492.807 1052.14C493.133 1052.3 493.508 1052.39 493.932 1052.39ZM505.087 1052.56V1053.81H499.996V1052.56H505.087ZM507.151 1056.61V1055.45L512.264 1047.36H513.105V1049.16H512.537L508.673 1055.27V1055.36H515.56V1056.61H507.151ZM512.628 1059V1056.26V1055.72V1047.36H513.969V1059H512.628Z" fill="white" fill-opacity="0.6"/>
<path d="M493.932 1118.16C493.152 1118.16 492.462 1118.02 491.864 1117.74C491.269 1117.46 490.805 1117.08 490.472 1116.59C490.138 1116.1 489.973 1115.54 489.977 1114.91C489.973 1114.42 490.07 1113.96 490.267 1113.55C490.464 1113.12 490.733 1112.77 491.074 1112.49C491.419 1112.21 491.803 1112.03 492.227 1111.95V1111.89C491.67 1111.74 491.227 1111.43 490.898 1110.95C490.568 1110.46 490.405 1109.91 490.409 1109.3C490.405 1108.7 490.555 1108.18 490.858 1107.71C491.161 1107.24 491.578 1106.88 492.108 1106.61C492.642 1106.34 493.25 1106.2 493.932 1106.2C494.606 1106.2 495.208 1106.34 495.739 1106.61C496.269 1106.88 496.686 1107.24 496.989 1107.71C497.295 1108.18 497.451 1108.7 497.455 1109.3C497.451 1109.91 497.282 1110.46 496.949 1110.95C496.619 1111.43 496.182 1111.74 495.636 1111.89V1111.95C496.057 1112.03 496.436 1112.21 496.773 1112.49C497.11 1112.77 497.379 1113.12 497.58 1113.55C497.78 1113.96 497.883 1114.42 497.886 1114.91C497.883 1115.54 497.712 1116.1 497.375 1116.59C497.042 1117.08 496.578 1117.46 495.983 1117.74C495.392 1118.02 494.708 1118.16 493.932 1118.16ZM493.932 1116.91C494.458 1116.91 494.913 1116.82 495.295 1116.65C495.678 1116.48 495.973 1116.24 496.182 1115.93C496.39 1115.62 496.496 1115.26 496.5 1114.84C496.496 1114.4 496.383 1114.01 496.159 1113.68C495.936 1113.34 495.631 1113.07 495.244 1112.88C494.862 1112.69 494.424 1112.59 493.932 1112.59C493.436 1112.59 492.992 1112.69 492.602 1112.88C492.216 1113.07 491.911 1113.34 491.688 1113.68C491.468 1114.01 491.36 1114.4 491.364 1114.84C491.36 1115.26 491.46 1115.62 491.665 1115.93C491.873 1116.24 492.17 1116.48 492.557 1116.65C492.943 1116.82 493.402 1116.91 493.932 1116.91ZM493.932 1111.39C494.348 1111.39 494.718 1111.3 495.04 1111.14C495.366 1110.97 495.621 1110.74 495.807 1110.44C495.992 1110.14 496.087 1109.79 496.091 1109.39C496.087 1108.99 495.994 1108.65 495.812 1108.36C495.631 1108.06 495.379 1107.84 495.057 1107.68C494.735 1107.51 494.36 1107.43 493.932 1107.43C493.496 1107.43 493.116 1107.51 492.79 1107.68C492.464 1107.84 492.212 1108.06 492.034 1108.36C491.856 1108.65 491.769 1108.99 491.773 1109.39C491.769 1109.79 491.858 1110.14 492.04 1110.44C492.225 1110.74 492.481 1110.97 492.807 1111.14C493.133 1111.3 493.508 1111.39 493.932 1111.39ZM505.087 1111.56V1112.81H499.996V1111.56H505.087ZM511.06 1118.16C510.393 1118.16 509.793 1118.03 509.259 1117.76C508.724 1117.5 508.296 1117.13 507.974 1116.67C507.652 1116.21 507.476 1115.68 507.446 1115.09H508.81C508.863 1115.62 509.101 1116.05 509.526 1116.4C509.954 1116.74 510.465 1116.91 511.06 1116.91C511.537 1116.91 511.961 1116.8 512.332 1116.57C512.707 1116.35 513.001 1116.04 513.213 1115.65C513.429 1115.26 513.537 1114.81 513.537 1114.32C513.537 1113.81 513.425 1113.36 513.202 1112.96C512.982 1112.56 512.679 1112.24 512.293 1112.01C511.906 1111.78 511.465 1111.66 510.969 1111.66C510.613 1111.66 510.247 1111.71 509.872 1111.82C509.497 1111.93 509.188 1112.08 508.946 1112.25L507.628 1112.09L508.332 1106.36H514.378V1107.61H509.514L509.105 1111.05H509.173C509.412 1110.86 509.711 1110.7 510.071 1110.57C510.431 1110.45 510.806 1110.39 511.196 1110.39C511.908 1110.39 512.543 1110.56 513.099 1110.9C513.66 1111.23 514.099 1111.7 514.418 1112.28C514.74 1112.87 514.901 1113.54 514.901 1114.3C514.901 1115.04 514.734 1115.7 514.401 1116.28C514.071 1116.86 513.616 1117.32 513.037 1117.66C512.457 1117.99 511.798 1118.16 511.06 1118.16Z" fill="white" fill-opacity="0.6"/>
<path d="M443.068 941.159C442.591 941.152 442.114 941.061 441.636 940.886C441.159 940.712 440.723 940.419 440.33 940.006C439.936 939.589 439.619 939.027 439.381 938.318C439.142 937.606 439.023 936.712 439.023 935.636C439.023 934.606 439.119 933.693 439.312 932.898C439.506 932.098 439.786 931.426 440.153 930.881C440.521 930.331 440.964 929.915 441.483 929.631C442.006 929.347 442.595 929.205 443.25 929.205C443.902 929.205 444.481 929.335 444.989 929.597C445.5 929.854 445.917 930.214 446.239 930.676C446.561 931.138 446.769 931.67 446.864 932.273H445.477C445.348 931.75 445.098 931.316 444.727 930.972C444.356 930.627 443.864 930.455 443.25 930.455C442.348 930.455 441.638 930.847 441.119 931.631C440.604 932.415 440.345 933.515 440.341 934.932H440.432C440.644 934.61 440.896 934.335 441.188 934.108C441.483 933.877 441.809 933.699 442.165 933.574C442.521 933.449 442.898 933.386 443.295 933.386C443.962 933.386 444.572 933.553 445.125 933.886C445.678 934.216 446.121 934.672 446.455 935.256C446.788 935.835 446.955 936.5 446.955 937.25C446.955 937.97 446.794 938.629 446.472 939.227C446.15 939.822 445.697 940.295 445.114 940.648C444.534 940.996 443.852 941.167 443.068 941.159ZM443.068 939.909C443.545 939.909 443.973 939.79 444.352 939.551C444.735 939.312 445.036 938.992 445.256 938.591C445.479 938.189 445.591 937.742 445.591 937.25C445.591 936.769 445.483 936.331 445.267 935.938C445.055 935.54 444.761 935.223 444.386 934.989C444.015 934.754 443.591 934.636 443.114 934.636C442.754 934.636 442.419 934.708 442.108 934.852C441.797 934.992 441.525 935.186 441.29 935.432C441.059 935.678 440.877 935.96 440.744 936.278C440.612 936.593 440.545 936.924 440.545 937.273C440.545 937.735 440.653 938.167 440.869 938.568C441.089 938.97 441.388 939.294 441.767 939.54C442.15 939.786 442.583 939.909 443.068 939.909ZM454.212 934.557V935.807H449.121V934.557H454.212ZM456.001 941V939.977L459.842 935.773C460.293 935.28 460.664 934.852 460.956 934.489C461.248 934.121 461.464 933.777 461.604 933.455C461.748 933.129 461.82 932.788 461.82 932.432C461.82 932.023 461.721 931.669 461.524 931.369C461.331 931.07 461.066 930.839 460.729 930.676C460.392 930.513 460.013 930.432 459.592 930.432C459.145 930.432 458.755 930.525 458.422 930.71C458.092 930.892 457.837 931.148 457.655 931.477C457.477 931.807 457.388 932.193 457.388 932.636H456.047C456.047 931.955 456.204 931.356 456.518 930.841C456.833 930.326 457.261 929.924 457.803 929.636C458.348 929.348 458.96 929.205 459.638 929.205C460.32 929.205 460.924 929.348 461.45 929.636C461.977 929.924 462.39 930.312 462.689 930.801C462.988 931.29 463.138 931.833 463.138 932.432C463.138 932.86 463.06 933.278 462.905 933.688C462.753 934.093 462.488 934.545 462.109 935.045C461.734 935.542 461.214 936.148 460.547 936.864L457.933 939.659V939.75H463.342V941H456.001Z" fill="white" fill-opacity="0.6"/>
<path d="M443.068 1000.16C442.591 1000.15 442.114 1000.06 441.636 999.886C441.159 999.712 440.723 999.419 440.33 999.006C439.936 998.589 439.619 998.027 439.381 997.318C439.142 996.606 439.023 995.712 439.023 994.636C439.023 993.606 439.119 992.693 439.312 991.898C439.506 991.098 439.786 990.426 440.153 989.881C440.521 989.331 440.964 988.915 441.483 988.631C442.006 988.347 442.595 988.205 443.25 988.205C443.902 988.205 444.481 988.335 444.989 988.597C445.5 988.854 445.917 989.214 446.239 989.676C446.561 990.138 446.769 990.67 446.864 991.273H445.477C445.348 990.75 445.098 990.316 444.727 989.972C444.356 989.627 443.864 989.455 443.25 989.455C442.348 989.455 441.638 989.847 441.119 990.631C440.604 991.415 440.345 992.515 440.341 993.932H440.432C440.644 993.61 440.896 993.335 441.188 993.108C441.483 992.877 441.809 992.699 442.165 992.574C442.521 992.449 442.898 992.386 443.295 992.386C443.962 992.386 444.572 992.553 445.125 992.886C445.678 993.216 446.121 993.672 446.455 994.256C446.788 994.835 446.955 995.5 446.955 996.25C446.955 996.97 446.794 997.629 446.472 998.227C446.15 998.822 445.697 999.295 445.114 999.648C444.534 999.996 443.852 1000.17 443.068 1000.16ZM443.068 998.909C443.545 998.909 443.973 998.79 444.352 998.551C444.735 998.312 445.036 997.992 445.256 997.591C445.479 997.189 445.591 996.742 445.591 996.25C445.591 995.769 445.483 995.331 445.267 994.938C445.055 994.54 444.761 994.223 444.386 993.989C444.015 993.754 443.591 993.636 443.114 993.636C442.754 993.636 442.419 993.708 442.108 993.852C441.797 993.992 441.525 994.186 441.29 994.432C441.059 994.678 440.877 994.96 440.744 995.278C440.612 995.593 440.545 995.924 440.545 996.273C440.545 996.735 440.653 997.167 440.869 997.568C441.089 997.97 441.388 998.294 441.767 998.54C442.15 998.786 442.583 998.909 443.068 998.909ZM454.212 993.557V994.807H449.121V993.557H454.212ZM460.293 1000.16C459.543 1000.16 458.874 1000.03 458.287 999.773C457.704 999.515 457.24 999.157 456.895 998.699C456.554 998.237 456.368 997.701 456.338 997.091H457.77C457.8 997.466 457.929 997.79 458.156 998.062C458.384 998.331 458.681 998.54 459.048 998.688C459.416 998.835 459.823 998.909 460.27 998.909C460.77 998.909 461.213 998.822 461.599 998.648C461.986 998.473 462.289 998.231 462.509 997.92C462.728 997.61 462.838 997.25 462.838 996.841C462.838 996.413 462.732 996.036 462.52 995.71C462.308 995.381 461.997 995.123 461.588 994.938C461.179 994.752 460.679 994.659 460.088 994.659H459.156V993.409H460.088C460.55 993.409 460.955 993.326 461.304 993.159C461.656 992.992 461.931 992.758 462.128 992.455C462.329 992.152 462.429 991.795 462.429 991.386C462.429 990.992 462.342 990.65 462.168 990.358C461.993 990.066 461.747 989.839 461.429 989.676C461.115 989.513 460.743 989.432 460.315 989.432C459.914 989.432 459.535 989.506 459.179 989.653C458.827 989.797 458.539 990.008 458.315 990.284C458.092 990.557 457.971 990.886 457.952 991.273H456.588C456.611 990.663 456.795 990.129 457.139 989.67C457.484 989.208 457.935 988.848 458.491 988.591C459.052 988.333 459.668 988.205 460.338 988.205C461.058 988.205 461.675 988.35 462.19 988.642C462.705 988.93 463.101 989.311 463.378 989.784C463.654 990.258 463.793 990.769 463.793 991.318C463.793 991.973 463.62 992.532 463.276 992.994C462.935 993.456 462.471 993.777 461.884 993.955V994.045C462.618 994.167 463.192 994.479 463.605 994.983C464.018 995.483 464.224 996.102 464.224 996.841C464.224 997.473 464.052 998.042 463.707 998.545C463.366 999.045 462.901 999.439 462.31 999.727C461.719 1000.02 461.046 1000.16 460.293 1000.16Z" fill="white" fill-opacity="0.6"/>
<path d="M443.068 1059.16C442.591 1059.15 442.114 1059.06 441.636 1058.89C441.159 1058.71 440.723 1058.42 440.33 1058.01C439.936 1057.59 439.619 1057.03 439.381 1056.32C439.142 1055.61 439.023 1054.71 439.023 1053.64C439.023 1052.61 439.119 1051.69 439.312 1050.9C439.506 1050.1 439.786 1049.43 440.153 1048.88C440.521 1048.33 440.964 1047.91 441.483 1047.63C442.006 1047.35 442.595 1047.2 443.25 1047.2C443.902 1047.2 444.481 1047.34 444.989 1047.6C445.5 1047.85 445.917 1048.21 446.239 1048.68C446.561 1049.14 446.769 1049.67 446.864 1050.27H445.477C445.348 1049.75 445.098 1049.32 444.727 1048.97C444.356 1048.63 443.864 1048.45 443.25 1048.45C442.348 1048.45 441.638 1048.85 441.119 1049.63C440.604 1050.41 440.345 1051.52 440.341 1052.93H440.432C440.644 1052.61 440.896 1052.34 441.188 1052.11C441.483 1051.88 441.809 1051.7 442.165 1051.57C442.521 1051.45 442.898 1051.39 443.295 1051.39C443.962 1051.39 444.572 1051.55 445.125 1051.89C445.678 1052.22 446.121 1052.67 446.455 1053.26C446.788 1053.84 446.955 1054.5 446.955 1055.25C446.955 1055.97 446.794 1056.63 446.472 1057.23C446.15 1057.82 445.697 1058.3 445.114 1058.65C444.534 1059 443.852 1059.17 443.068 1059.16ZM443.068 1057.91C443.545 1057.91 443.973 1057.79 444.352 1057.55C444.735 1057.31 445.036 1056.99 445.256 1056.59C445.479 1056.19 445.591 1055.74 445.591 1055.25C445.591 1054.77 445.483 1054.33 445.267 1053.94C445.055 1053.54 444.761 1053.22 444.386 1052.99C444.015 1052.75 443.591 1052.64 443.114 1052.64C442.754 1052.64 442.419 1052.71 442.108 1052.85C441.797 1052.99 441.525 1053.19 441.29 1053.43C441.059 1053.68 440.877 1053.96 440.744 1054.28C440.612 1054.59 440.545 1054.92 440.545 1055.27C440.545 1055.73 440.653 1056.17 440.869 1056.57C441.089 1056.97 441.388 1057.29 441.767 1057.54C442.15 1057.79 442.583 1057.91 443.068 1057.91ZM454.212 1052.56V1053.81H449.121V1052.56H454.212ZM456.276 1056.61V1055.45L461.389 1047.36H462.23V1049.16H461.662L457.798 1055.27V1055.36H464.685V1056.61H456.276ZM461.753 1059V1056.26V1055.72V1047.36H463.094V1059H461.753Z" fill="white" fill-opacity="0.6"/>
<path d="M443.068 1118.16C442.591 1118.15 442.114 1118.06 441.636 1117.89C441.159 1117.71 440.723 1117.42 440.33 1117.01C439.936 1116.59 439.619 1116.03 439.381 1115.32C439.142 1114.61 439.023 1113.71 439.023 1112.64C439.023 1111.61 439.119 1110.69 439.312 1109.9C439.506 1109.1 439.786 1108.43 440.153 1107.88C440.521 1107.33 440.964 1106.91 441.483 1106.63C442.006 1106.35 442.595 1106.2 443.25 1106.2C443.902 1106.2 444.481 1106.34 444.989 1106.6C445.5 1106.85 445.917 1107.21 446.239 1107.68C446.561 1108.14 446.769 1108.67 446.864 1109.27H445.477C445.348 1108.75 445.098 1108.32 444.727 1107.97C444.356 1107.63 443.864 1107.45 443.25 1107.45C442.348 1107.45 441.638 1107.85 441.119 1108.63C440.604 1109.41 440.345 1110.52 440.341 1111.93H440.432C440.644 1111.61 440.896 1111.34 441.188 1111.11C441.483 1110.88 441.809 1110.7 442.165 1110.57C442.521 1110.45 442.898 1110.39 443.295 1110.39C443.962 1110.39 444.572 1110.55 445.125 1110.89C445.678 1111.22 446.121 1111.67 446.455 1112.26C446.788 1112.84 446.955 1113.5 446.955 1114.25C446.955 1114.97 446.794 1115.63 446.472 1116.23C446.15 1116.82 445.697 1117.3 445.114 1117.65C444.534 1118 443.852 1118.17 443.068 1118.16ZM443.068 1116.91C443.545 1116.91 443.973 1116.79 444.352 1116.55C444.735 1116.31 445.036 1115.99 445.256 1115.59C445.479 1115.19 445.591 1114.74 445.591 1114.25C445.591 1113.77 445.483 1113.33 445.267 1112.94C445.055 1112.54 444.761 1112.22 444.386 1111.99C444.015 1111.75 443.591 1111.64 443.114 1111.64C442.754 1111.64 442.419 1111.71 442.108 1111.85C441.797 1111.99 441.525 1112.19 441.29 1112.43C441.059 1112.68 440.877 1112.96 440.744 1113.28C440.612 1113.59 440.545 1113.92 440.545 1114.27C440.545 1114.73 440.653 1115.17 440.869 1115.57C441.089 1115.97 441.388 1116.29 441.767 1116.54C442.15 1116.79 442.583 1116.91 443.068 1116.91ZM454.212 1111.56V1112.81H449.121V1111.56H454.212ZM460.185 1118.16C459.518 1118.16 458.918 1118.03 458.384 1117.76C457.849 1117.5 457.421 1117.13 457.099 1116.67C456.777 1116.21 456.601 1115.68 456.571 1115.09H457.935C457.988 1115.62 458.226 1116.05 458.651 1116.4C459.079 1116.74 459.59 1116.91 460.185 1116.91C460.662 1116.91 461.086 1116.8 461.457 1116.57C461.832 1116.35 462.126 1116.04 462.338 1115.65C462.554 1115.26 462.662 1114.81 462.662 1114.32C462.662 1113.81 462.55 1113.36 462.327 1112.96C462.107 1112.56 461.804 1112.24 461.418 1112.01C461.031 1111.78 460.59 1111.66 460.094 1111.66C459.738 1111.66 459.372 1111.71 458.997 1111.82C458.622 1111.93 458.313 1112.08 458.071 1112.25L456.753 1112.09L457.457 1106.36H463.503V1107.61H458.639L458.23 1111.05H458.298C458.537 1110.86 458.836 1110.7 459.196 1110.57C459.556 1110.45 459.931 1110.39 460.321 1110.39C461.033 1110.39 461.668 1110.56 462.224 1110.9C462.785 1111.23 463.224 1111.7 463.543 1112.28C463.865 1112.87 464.026 1113.54 464.026 1114.3C464.026 1115.04 463.859 1115.7 463.526 1116.28C463.196 1116.86 462.741 1117.32 462.162 1117.66C461.582 1117.99 460.923 1118.16 460.185 1118.16Z" fill="white" fill-opacity="0.6"/>
<path d="M371.909 795.205C372.386 795.208 372.864 795.299 373.341 795.477C373.818 795.655 374.254 795.951 374.648 796.364C375.042 796.773 375.358 797.331 375.597 798.04C375.835 798.748 375.955 799.636 375.955 800.705C375.955 801.739 375.856 802.657 375.659 803.46C375.466 804.259 375.186 804.934 374.818 805.483C374.455 806.032 374.011 806.449 373.489 806.733C372.97 807.017 372.383 807.159 371.727 807.159C371.076 807.159 370.494 807.03 369.983 806.773C369.475 806.511 369.059 806.15 368.733 805.688C368.411 805.222 368.205 804.682 368.114 804.068H369.5C369.625 804.602 369.873 805.044 370.244 805.392C370.619 805.737 371.114 805.909 371.727 805.909C372.625 805.909 373.333 805.517 373.852 804.733C374.375 803.949 374.636 802.841 374.636 801.409H374.545C374.333 801.727 374.081 802.002 373.79 802.233C373.498 802.464 373.174 802.642 372.818 802.767C372.462 802.892 372.083 802.955 371.682 802.955C371.015 802.955 370.403 802.79 369.847 802.46C369.294 802.127 368.85 801.67 368.517 801.091C368.188 800.508 368.023 799.841 368.023 799.091C368.023 798.379 368.182 797.727 368.5 797.136C368.822 796.542 369.273 796.068 369.852 795.716C370.436 795.364 371.121 795.193 371.909 795.205ZM371.909 796.455C371.432 796.455 371.002 796.574 370.619 796.812C370.241 797.047 369.939 797.366 369.716 797.767C369.496 798.165 369.386 798.606 369.386 799.091C369.386 799.576 369.492 800.017 369.705 800.415C369.92 800.809 370.214 801.123 370.585 801.358C370.96 801.589 371.386 801.705 371.864 801.705C372.223 801.705 372.559 801.634 372.869 801.494C373.18 801.35 373.451 801.155 373.682 800.909C373.917 800.659 374.1 800.377 374.233 800.062C374.366 799.744 374.432 799.413 374.432 799.068C374.432 798.614 374.322 798.187 374.102 797.79C373.886 797.392 373.587 797.07 373.205 796.824C372.826 796.578 372.394 796.455 371.909 796.455ZM383.212 800.557V801.807H378.121V800.557H383.212ZM389.639 795.364V807H388.23V796.841H388.162L385.321 798.727V797.295L388.23 795.364H389.639Z" fill="white" fill-opacity="0.6"/>
<path d="M415.068 807.159C414.591 807.152 414.114 807.061 413.636 806.886C413.159 806.712 412.723 806.419 412.33 806.006C411.936 805.589 411.619 805.027 411.381 804.318C411.142 803.606 411.023 802.712 411.023 801.636C411.023 800.606 411.119 799.693 411.312 798.898C411.506 798.098 411.786 797.426 412.153 796.881C412.521 796.331 412.964 795.915 413.483 795.631C414.006 795.347 414.595 795.205 415.25 795.205C415.902 795.205 416.481 795.335 416.989 795.597C417.5 795.854 417.917 796.214 418.239 796.676C418.561 797.138 418.769 797.67 418.864 798.273H417.477C417.348 797.75 417.098 797.316 416.727 796.972C416.356 796.627 415.864 796.455 415.25 796.455C414.348 796.455 413.638 796.847 413.119 797.631C412.604 798.415 412.345 799.515 412.341 800.932H412.432C412.644 800.61 412.896 800.335 413.188 800.108C413.483 799.877 413.809 799.699 414.165 799.574C414.521 799.449 414.898 799.386 415.295 799.386C415.962 799.386 416.572 799.553 417.125 799.886C417.678 800.216 418.121 800.672 418.455 801.256C418.788 801.835 418.955 802.5 418.955 803.25C418.955 803.97 418.794 804.629 418.472 805.227C418.15 805.822 417.697 806.295 417.114 806.648C416.534 806.996 415.852 807.167 415.068 807.159ZM415.068 805.909C415.545 805.909 415.973 805.79 416.352 805.551C416.735 805.312 417.036 804.992 417.256 804.591C417.479 804.189 417.591 803.742 417.591 803.25C417.591 802.769 417.483 802.331 417.267 801.938C417.055 801.54 416.761 801.223 416.386 800.989C416.015 800.754 415.591 800.636 415.114 800.636C414.754 800.636 414.419 800.708 414.108 800.852C413.797 800.992 413.525 801.186 413.29 801.432C413.059 801.678 412.877 801.96 412.744 802.278C412.612 802.593 412.545 802.924 412.545 803.273C412.545 803.735 412.653 804.167 412.869 804.568C413.089 804.97 413.388 805.294 413.767 805.54C414.15 805.786 414.583 805.909 415.068 805.909ZM426.212 800.557V801.807H421.121V800.557H426.212ZM432.639 795.364V807H431.23V796.841H431.162L428.321 798.727V797.295L431.23 795.364H432.639Z" fill="white" fill-opacity="0.6"/>
<path d="M205.841 844.159C205.174 844.159 204.574 844.027 204.04 843.761C203.506 843.496 203.078 843.133 202.756 842.67C202.434 842.208 202.258 841.682 202.227 841.091H203.591C203.644 841.617 203.883 842.053 204.307 842.398C204.735 842.739 205.246 842.909 205.841 842.909C206.318 842.909 206.742 842.797 207.114 842.574C207.489 842.35 207.782 842.044 207.994 841.653C208.21 841.259 208.318 840.814 208.318 840.318C208.318 839.811 208.206 839.358 207.983 838.96C207.763 838.559 207.46 838.242 207.074 838.011C206.688 837.78 206.246 837.663 205.75 837.659C205.394 837.655 205.028 837.71 204.653 837.824C204.278 837.934 203.97 838.076 203.727 838.25L202.409 838.091L203.114 832.364H209.159V833.614H204.295L203.886 837.045H203.955C204.193 836.856 204.492 836.699 204.852 836.574C205.212 836.449 205.587 836.386 205.977 836.386C206.689 836.386 207.324 836.557 207.881 836.898C208.441 837.235 208.881 837.697 209.199 838.284C209.521 838.871 209.682 839.542 209.682 840.295C209.682 841.038 209.515 841.701 209.182 842.284C208.852 842.864 208.398 843.322 207.818 843.659C207.239 843.992 206.58 844.159 205.841 844.159ZM216.962 837.557V838.807H211.871V837.557H216.962ZM223.389 832.364V844H221.98V833.841H221.912L219.071 835.727V834.295L221.98 832.364H223.389Z" fill="white" fill-opacity="0.6"/>
<path d="M254.841 844.159C254.174 844.159 253.574 844.027 253.04 843.761C252.506 843.496 252.078 843.133 251.756 842.67C251.434 842.208 251.258 841.682 251.227 841.091H252.591C252.644 841.617 252.883 842.053 253.307 842.398C253.735 842.739 254.246 842.909 254.841 842.909C255.318 842.909 255.742 842.797 256.114 842.574C256.489 842.35 256.782 842.044 256.994 841.653C257.21 841.259 257.318 840.814 257.318 840.318C257.318 839.811 257.206 839.358 256.983 838.96C256.763 838.559 256.46 838.242 256.074 838.011C255.688 837.78 255.246 837.663 254.75 837.659C254.394 837.655 254.028 837.71 253.653 837.824C253.278 837.934 252.97 838.076 252.727 838.25L251.409 838.091L252.114 832.364H258.159V833.614H253.295L252.886 837.045H252.955C253.193 836.856 253.492 836.699 253.852 836.574C254.212 836.449 254.587 836.386 254.977 836.386C255.689 836.386 256.324 836.557 256.881 836.898C257.441 837.235 257.881 837.697 258.199 838.284C258.521 838.871 258.682 839.542 258.682 840.295C258.682 841.038 258.515 841.701 258.182 842.284C257.852 842.864 257.398 843.322 256.818 843.659C256.239 843.992 255.58 844.159 254.841 844.159ZM265.962 837.557V838.807H260.871V837.557H265.962ZM267.751 844V842.977L271.592 838.773C272.043 838.28 272.414 837.852 272.706 837.489C272.998 837.121 273.214 836.777 273.354 836.455C273.498 836.129 273.57 835.788 273.57 835.432C273.57 835.023 273.471 834.669 273.274 834.369C273.081 834.07 272.816 833.839 272.479 833.676C272.142 833.513 271.763 833.432 271.342 833.432C270.895 833.432 270.505 833.525 270.172 833.71C269.842 833.892 269.587 834.148 269.405 834.477C269.227 834.807 269.138 835.193 269.138 835.636H267.797C267.797 834.955 267.954 834.356 268.268 833.841C268.583 833.326 269.011 832.924 269.553 832.636C270.098 832.348 270.71 832.205 271.388 832.205C272.07 832.205 272.674 832.348 273.2 832.636C273.727 832.924 274.14 833.312 274.439 833.801C274.738 834.29 274.888 834.833 274.888 835.432C274.888 835.86 274.81 836.278 274.655 836.688C274.503 837.093 274.238 837.545 273.859 838.045C273.484 838.542 272.964 839.148 272.297 839.864L269.683 842.659V842.75H275.092V844H267.751Z" fill="white" fill-opacity="0.6"/>
<path d="M305.841 844.159C305.174 844.159 304.574 844.027 304.04 843.761C303.506 843.496 303.078 843.133 302.756 842.67C302.434 842.208 302.258 841.682 302.227 841.091H303.591C303.644 841.617 303.883 842.053 304.307 842.398C304.735 842.739 305.246 842.909 305.841 842.909C306.318 842.909 306.742 842.797 307.114 842.574C307.489 842.35 307.782 842.044 307.994 841.653C308.21 841.259 308.318 840.814 308.318 840.318C308.318 839.811 308.206 839.358 307.983 838.96C307.763 838.559 307.46 838.242 307.074 838.011C306.688 837.78 306.246 837.663 305.75 837.659C305.394 837.655 305.028 837.71 304.653 837.824C304.278 837.934 303.97 838.076 303.727 838.25L302.409 838.091L303.114 832.364H309.159V833.614H304.295L303.886 837.045H303.955C304.193 836.856 304.492 836.699 304.852 836.574C305.212 836.449 305.587 836.386 305.977 836.386C306.689 836.386 307.324 836.557 307.881 836.898C308.441 837.235 308.881 837.697 309.199 838.284C309.521 838.871 309.682 839.542 309.682 840.295C309.682 841.038 309.515 841.701 309.182 842.284C308.852 842.864 308.398 843.322 307.818 843.659C307.239 843.992 306.58 844.159 305.841 844.159ZM316.962 837.557V838.807H311.871V837.557H316.962ZM323.043 844.159C322.293 844.159 321.624 844.03 321.037 843.773C320.454 843.515 319.99 843.157 319.645 842.699C319.304 842.237 319.118 841.701 319.088 841.091H320.52C320.55 841.466 320.679 841.79 320.906 842.062C321.134 842.331 321.431 842.54 321.798 842.688C322.166 842.835 322.573 842.909 323.02 842.909C323.52 842.909 323.963 842.822 324.349 842.648C324.736 842.473 325.039 842.231 325.259 841.92C325.478 841.61 325.588 841.25 325.588 840.841C325.588 840.413 325.482 840.036 325.27 839.71C325.058 839.381 324.747 839.123 324.338 838.938C323.929 838.752 323.429 838.659 322.838 838.659H321.906V837.409H322.838C323.3 837.409 323.705 837.326 324.054 837.159C324.406 836.992 324.681 836.758 324.878 836.455C325.079 836.152 325.179 835.795 325.179 835.386C325.179 834.992 325.092 834.65 324.918 834.358C324.743 834.066 324.497 833.839 324.179 833.676C323.865 833.513 323.493 833.432 323.065 833.432C322.664 833.432 322.285 833.506 321.929 833.653C321.577 833.797 321.289 834.008 321.065 834.284C320.842 834.557 320.721 834.886 320.702 835.273H319.338C319.361 834.663 319.545 834.129 319.889 833.67C320.234 833.208 320.685 832.848 321.241 832.591C321.802 832.333 322.418 832.205 323.088 832.205C323.808 832.205 324.425 832.35 324.94 832.642C325.455 832.93 325.851 833.311 326.128 833.784C326.404 834.258 326.543 834.769 326.543 835.318C326.543 835.973 326.37 836.532 326.026 836.994C325.685 837.456 325.221 837.777 324.634 837.955V838.045C325.368 838.167 325.942 838.479 326.355 838.983C326.768 839.483 326.974 840.102 326.974 840.841C326.974 841.473 326.802 842.042 326.457 842.545C326.116 843.045 325.651 843.439 325.06 843.727C324.469 844.015 323.796 844.159 323.043 844.159Z" fill="white" fill-opacity="0.6"/>
<path d="M189.932 553.614V552.455L195.045 544.364H195.886V546.159H195.318L191.455 552.273V552.364H198.341V553.614H189.932ZM195.409 556V553.261V552.722V544.364H196.75V556H195.409ZM205.493 549.557V550.807H200.402V549.557H205.493ZM211.92 544.364V556H210.511V545.841H210.443L207.602 547.727V546.295L210.511 544.364H211.92Z" fill="white" fill-opacity="0.6"/>
<path d="M189.932 613.614V612.455L195.045 604.364H195.886V606.159H195.318L191.455 612.273V612.364H198.341V613.614H189.932ZM195.409 616V613.261V612.722V604.364H196.75V616H195.409ZM205.493 609.557V610.807H200.402V609.557H205.493ZM207.283 616V614.977L211.124 610.773C211.574 610.28 211.946 609.852 212.237 609.489C212.529 609.121 212.745 608.777 212.885 608.455C213.029 608.129 213.101 607.788 213.101 607.432C213.101 607.023 213.002 606.669 212.805 606.369C212.612 606.07 212.347 605.839 212.01 605.676C211.673 605.513 211.294 605.432 210.874 605.432C210.427 605.432 210.036 605.525 209.703 605.71C209.374 605.892 209.118 606.148 208.936 606.477C208.758 606.807 208.669 607.193 208.669 607.636H207.328C207.328 606.955 207.485 606.356 207.8 605.841C208.114 605.326 208.542 604.924 209.084 604.636C209.629 604.348 210.241 604.205 210.919 604.205C211.601 604.205 212.205 604.348 212.732 604.636C213.258 604.924 213.671 605.312 213.97 605.801C214.269 606.29 214.419 606.833 214.419 607.432C214.419 607.86 214.341 608.278 214.186 608.688C214.035 609.093 213.769 609.545 213.391 610.045C213.016 610.542 212.495 611.148 211.828 611.864L209.214 614.659V614.75H214.624V616H207.283Z" fill="white" fill-opacity="0.6"/>
<path d="M189.932 667.614V666.455L195.045 658.364H195.886V660.159H195.318L191.455 666.273V666.364H198.341V667.614H189.932ZM195.409 670V667.261V666.722V658.364H196.75V670H195.409ZM205.493 663.557V664.807H200.402V663.557H205.493ZM211.574 670.159C210.824 670.159 210.155 670.03 209.568 669.773C208.985 669.515 208.521 669.157 208.176 668.699C207.835 668.237 207.65 667.701 207.619 667.091H209.051C209.081 667.466 209.21 667.79 209.438 668.062C209.665 668.331 209.962 668.54 210.33 668.688C210.697 668.835 211.104 668.909 211.551 668.909C212.051 668.909 212.494 668.822 212.881 668.648C213.267 668.473 213.57 668.231 213.79 667.92C214.009 667.61 214.119 667.25 214.119 666.841C214.119 666.413 214.013 666.036 213.801 665.71C213.589 665.381 213.278 665.123 212.869 664.938C212.46 664.752 211.96 664.659 211.369 664.659H210.438V663.409H211.369C211.831 663.409 212.237 663.326 212.585 663.159C212.938 662.992 213.212 662.758 213.409 662.455C213.61 662.152 213.71 661.795 213.71 661.386C213.71 660.992 213.623 660.65 213.449 660.358C213.275 660.066 213.028 659.839 212.71 659.676C212.396 659.513 212.025 659.432 211.597 659.432C211.195 659.432 210.816 659.506 210.46 659.653C210.108 659.797 209.82 660.008 209.597 660.284C209.373 660.557 209.252 660.886 209.233 661.273H207.869C207.892 660.663 208.076 660.129 208.42 659.67C208.765 659.208 209.216 658.848 209.773 658.591C210.333 658.333 210.949 658.205 211.619 658.205C212.339 658.205 212.956 658.35 213.472 658.642C213.987 658.93 214.383 659.311 214.659 659.784C214.936 660.258 215.074 660.769 215.074 661.318C215.074 661.973 214.902 662.532 214.557 662.994C214.216 663.456 213.752 663.777 213.165 663.955V664.045C213.9 664.167 214.473 664.479 214.886 664.983C215.299 665.483 215.506 666.102 215.506 666.841C215.506 667.473 215.333 668.042 214.989 668.545C214.648 669.045 214.182 669.439 213.591 669.727C213 670.015 212.328 670.159 211.574 670.159Z" fill="white" fill-opacity="0.6"/>
<path d="M238.932 718.614V717.455L244.045 709.364H244.886V711.159H244.318L240.455 717.273V717.364H247.341V718.614H238.932ZM244.409 721V718.261V717.722V709.364H245.75V721H244.409ZM254.493 714.557V715.807H249.402V714.557H254.493ZM256.557 718.614V717.455L261.67 709.364H262.511V711.159H261.943L258.08 717.273V717.364H264.966V718.614H256.557ZM262.034 721V718.261V717.722V709.364H263.375V721H262.034Z" fill="white" fill-opacity="0.6"/>
<path d="M238.932 780.614V779.455L244.045 771.364H244.886V773.159H244.318L240.455 779.273V779.364H247.341V780.614H238.932ZM244.409 783V780.261V779.722V771.364H245.75V783H244.409ZM254.493 776.557V777.807H249.402V776.557H254.493ZM260.466 783.159C259.799 783.159 259.199 783.027 258.665 782.761C258.131 782.496 257.703 782.133 257.381 781.67C257.059 781.208 256.883 780.682 256.852 780.091H258.216C258.269 780.617 258.508 781.053 258.932 781.398C259.36 781.739 259.871 781.909 260.466 781.909C260.943 781.909 261.367 781.797 261.739 781.574C262.114 781.35 262.407 781.044 262.619 780.653C262.835 780.259 262.943 779.814 262.943 779.318C262.943 778.811 262.831 778.358 262.608 777.96C262.388 777.559 262.085 777.242 261.699 777.011C261.313 776.78 260.871 776.663 260.375 776.659C260.019 776.655 259.653 776.71 259.278 776.824C258.903 776.934 258.595 777.076 258.352 777.25L257.034 777.091L257.739 771.364H263.784V772.614H258.92L258.511 776.045H258.58C258.818 775.856 259.117 775.699 259.477 775.574C259.837 775.449 260.212 775.386 260.602 775.386C261.314 775.386 261.949 775.557 262.506 775.898C263.066 776.235 263.506 776.697 263.824 777.284C264.146 777.871 264.307 778.542 264.307 779.295C264.307 780.038 264.14 780.701 263.807 781.284C263.477 781.864 263.023 782.322 262.443 782.659C261.864 782.992 261.205 783.159 260.466 783.159Z" fill="white" fill-opacity="0.6"/>
<path d="M115.136 328.159C114.386 328.159 113.718 328.03 113.131 327.773C112.547 327.515 112.083 327.157 111.739 326.699C111.398 326.237 111.212 325.701 111.182 325.091H112.614C112.644 325.466 112.773 325.79 113 326.062C113.227 326.331 113.525 326.54 113.892 326.688C114.259 326.835 114.667 326.909 115.114 326.909C115.614 326.909 116.057 326.822 116.443 326.648C116.83 326.473 117.133 326.231 117.352 325.92C117.572 325.61 117.682 325.25 117.682 324.841C117.682 324.413 117.576 324.036 117.364 323.71C117.152 323.381 116.841 323.123 116.432 322.938C116.023 322.752 115.523 322.659 114.932 322.659H114V321.409H114.932C115.394 321.409 115.799 321.326 116.148 321.159C116.5 320.992 116.775 320.758 116.972 320.455C117.172 320.152 117.273 319.795 117.273 319.386C117.273 318.992 117.186 318.65 117.011 318.358C116.837 318.066 116.591 317.839 116.273 317.676C115.958 317.513 115.587 317.432 115.159 317.432C114.758 317.432 114.379 317.506 114.023 317.653C113.67 317.797 113.383 318.008 113.159 318.284C112.936 318.557 112.814 318.886 112.795 319.273H111.432C111.455 318.663 111.638 318.129 111.983 317.67C112.328 317.208 112.778 316.848 113.335 316.591C113.896 316.333 114.511 316.205 115.182 316.205C115.902 316.205 116.519 316.35 117.034 316.642C117.549 316.93 117.945 317.311 118.222 317.784C118.498 318.258 118.636 318.769 118.636 319.318C118.636 319.973 118.464 320.532 118.119 320.994C117.778 321.456 117.314 321.777 116.727 321.955V322.045C117.462 322.167 118.036 322.479 118.449 322.983C118.862 323.483 119.068 324.102 119.068 324.841C119.068 325.473 118.896 326.042 118.551 326.545C118.21 327.045 117.744 327.439 117.153 327.727C116.563 328.015 115.89 328.159 115.136 328.159ZM126.415 321.557V322.807H121.324V321.557H126.415ZM132.842 316.364V328H131.433V317.841H131.365L128.524 319.727V318.295L131.433 316.364H132.842Z" fill="white" fill-opacity="0.6"/>
<path d="M115.136 388.159C114.386 388.159 113.718 388.03 113.131 387.773C112.547 387.515 112.083 387.157 111.739 386.699C111.398 386.237 111.212 385.701 111.182 385.091H112.614C112.644 385.466 112.773 385.79 113 386.062C113.227 386.331 113.525 386.54 113.892 386.688C114.259 386.835 114.667 386.909 115.114 386.909C115.614 386.909 116.057 386.822 116.443 386.648C116.83 386.473 117.133 386.231 117.352 385.92C117.572 385.61 117.682 385.25 117.682 384.841C117.682 384.413 117.576 384.036 117.364 383.71C117.152 383.381 116.841 383.123 116.432 382.938C116.023 382.752 115.523 382.659 114.932 382.659H114V381.409H114.932C115.394 381.409 115.799 381.326 116.148 381.159C116.5 380.992 116.775 380.758 116.972 380.455C117.172 380.152 117.273 379.795 117.273 379.386C117.273 378.992 117.186 378.65 117.011 378.358C116.837 378.066 116.591 377.839 116.273 377.676C115.958 377.513 115.587 377.432 115.159 377.432C114.758 377.432 114.379 377.506 114.023 377.653C113.67 377.797 113.383 378.008 113.159 378.284C112.936 378.557 112.814 378.886 112.795 379.273H111.432C111.455 378.663 111.638 378.129 111.983 377.67C112.328 377.208 112.778 376.848 113.335 376.591C113.896 376.333 114.511 376.205 115.182 376.205C115.902 376.205 116.519 376.35 117.034 376.642C117.549 376.93 117.945 377.311 118.222 377.784C118.498 378.258 118.636 378.769 118.636 379.318C118.636 379.973 118.464 380.532 118.119 380.994C117.778 381.456 117.314 381.777 116.727 381.955V382.045C117.462 382.167 118.036 382.479 118.449 382.983C118.862 383.483 119.068 384.102 119.068 384.841C119.068 385.473 118.896 386.042 118.551 386.545C118.21 387.045 117.744 387.439 117.153 387.727C116.563 388.015 115.89 388.159 115.136 388.159ZM126.415 381.557V382.807H121.324V381.557H126.415ZM128.205 388V386.977L132.045 382.773C132.496 382.28 132.867 381.852 133.159 381.489C133.451 381.121 133.667 380.777 133.807 380.455C133.951 380.129 134.023 379.788 134.023 379.432C134.023 379.023 133.924 378.669 133.727 378.369C133.534 378.07 133.269 377.839 132.932 377.676C132.595 377.513 132.216 377.432 131.795 377.432C131.348 377.432 130.958 377.525 130.625 377.71C130.295 377.892 130.04 378.148 129.858 378.477C129.68 378.807 129.591 379.193 129.591 379.636H128.25C128.25 378.955 128.407 378.356 128.722 377.841C129.036 377.326 129.464 376.924 130.006 376.636C130.551 376.348 131.163 376.205 131.841 376.205C132.523 376.205 133.127 376.348 133.653 376.636C134.18 376.924 134.593 377.312 134.892 377.801C135.191 378.29 135.341 378.833 135.341 379.432C135.341 379.86 135.263 380.278 135.108 380.688C134.956 381.093 134.691 381.545 134.312 382.045C133.938 382.542 133.417 383.148 132.75 383.864L130.136 386.659V386.75H135.545V388H128.205Z" fill="white" fill-opacity="0.6"/>
<path d="M115.136 448.159C114.386 448.159 113.718 448.03 113.131 447.773C112.547 447.515 112.083 447.157 111.739 446.699C111.398 446.237 111.212 445.701 111.182 445.091H112.614C112.644 445.466 112.773 445.79 113 446.062C113.227 446.331 113.525 446.54 113.892 446.688C114.259 446.835 114.667 446.909 115.114 446.909C115.614 446.909 116.057 446.822 116.443 446.648C116.83 446.473 117.133 446.231 117.352 445.92C117.572 445.61 117.682 445.25 117.682 444.841C117.682 444.413 117.576 444.036 117.364 443.71C117.152 443.381 116.841 443.123 116.432 442.938C116.023 442.752 115.523 442.659 114.932 442.659H114V441.409H114.932C115.394 441.409 115.799 441.326 116.148 441.159C116.5 440.992 116.775 440.758 116.972 440.455C117.172 440.152 117.273 439.795 117.273 439.386C117.273 438.992 117.186 438.65 117.011 438.358C116.837 438.066 116.591 437.839 116.273 437.676C115.958 437.513 115.587 437.432 115.159 437.432C114.758 437.432 114.379 437.506 114.023 437.653C113.67 437.797 113.383 438.008 113.159 438.284C112.936 438.557 112.814 438.886 112.795 439.273H111.432C111.455 438.663 111.638 438.129 111.983 437.67C112.328 437.208 112.778 436.848 113.335 436.591C113.896 436.333 114.511 436.205 115.182 436.205C115.902 436.205 116.519 436.35 117.034 436.642C117.549 436.93 117.945 437.311 118.222 437.784C118.498 438.258 118.636 438.769 118.636 439.318C118.636 439.973 118.464 440.532 118.119 440.994C117.778 441.456 117.314 441.777 116.727 441.955V442.045C117.462 442.167 118.036 442.479 118.449 442.983C118.862 443.483 119.068 444.102 119.068 444.841C119.068 445.473 118.896 446.042 118.551 446.545C118.21 447.045 117.744 447.439 117.153 447.727C116.563 448.015 115.89 448.159 115.136 448.159ZM126.415 441.557V442.807H121.324V441.557H126.415ZM132.496 448.159C131.746 448.159 131.077 448.03 130.49 447.773C129.907 447.515 129.443 447.157 129.098 446.699C128.757 446.237 128.571 445.701 128.541 445.091H129.973C130.003 445.466 130.132 445.79 130.359 446.062C130.587 446.331 130.884 446.54 131.251 446.688C131.619 446.835 132.026 446.909 132.473 446.909C132.973 446.909 133.416 446.822 133.803 446.648C134.189 446.473 134.492 446.231 134.712 445.92C134.931 445.61 135.041 445.25 135.041 444.841C135.041 444.413 134.935 444.036 134.723 443.71C134.511 443.381 134.2 443.123 133.791 442.938C133.382 442.752 132.882 442.659 132.291 442.659H131.359V441.409H132.291C132.753 441.409 133.159 441.326 133.507 441.159C133.859 440.992 134.134 440.758 134.331 440.455C134.532 440.152 134.632 439.795 134.632 439.386C134.632 438.992 134.545 438.65 134.371 438.358C134.196 438.066 133.95 437.839 133.632 437.676C133.318 437.513 132.946 437.432 132.518 437.432C132.117 437.432 131.738 437.506 131.382 437.653C131.03 437.797 130.742 438.008 130.518 438.284C130.295 438.557 130.174 438.886 130.155 439.273H128.791C128.814 438.663 128.998 438.129 129.342 437.67C129.687 437.208 130.138 436.848 130.695 436.591C131.255 436.333 131.871 436.205 132.541 436.205C133.261 436.205 133.878 436.35 134.393 436.642C134.909 436.93 135.304 437.311 135.581 437.784C135.857 438.258 135.996 438.769 135.996 439.318C135.996 439.973 135.823 440.532 135.479 440.994C135.138 441.456 134.674 441.777 134.087 441.955V442.045C134.821 442.167 135.395 442.479 135.808 442.983C136.221 443.483 136.428 444.102 136.428 444.841C136.428 445.473 136.255 446.042 135.911 446.545C135.57 447.045 135.104 447.439 134.513 447.727C133.922 448.015 133.25 448.159 132.496 448.159Z" fill="white" fill-opacity="0.6"/>
<path d="M115.136 508.159C114.386 508.159 113.718 508.03 113.131 507.773C112.547 507.515 112.083 507.157 111.739 506.699C111.398 506.237 111.212 505.701 111.182 505.091H112.614C112.644 505.466 112.773 505.79 113 506.062C113.227 506.331 113.525 506.54 113.892 506.688C114.259 506.835 114.667 506.909 115.114 506.909C115.614 506.909 116.057 506.822 116.443 506.648C116.83 506.473 117.133 506.231 117.352 505.92C117.572 505.61 117.682 505.25 117.682 504.841C117.682 504.413 117.576 504.036 117.364 503.71C117.152 503.381 116.841 503.123 116.432 502.938C116.023 502.752 115.523 502.659 114.932 502.659H114V501.409H114.932C115.394 501.409 115.799 501.326 116.148 501.159C116.5 500.992 116.775 500.758 116.972 500.455C117.172 500.152 117.273 499.795 117.273 499.386C117.273 498.992 117.186 498.65 117.011 498.358C116.837 498.066 116.591 497.839 116.273 497.676C115.958 497.513 115.587 497.432 115.159 497.432C114.758 497.432 114.379 497.506 114.023 497.653C113.67 497.797 113.383 498.008 113.159 498.284C112.936 498.557 112.814 498.886 112.795 499.273H111.432C111.455 498.663 111.638 498.129 111.983 497.67C112.328 497.208 112.778 496.848 113.335 496.591C113.896 496.333 114.511 496.205 115.182 496.205C115.902 496.205 116.519 496.35 117.034 496.642C117.549 496.93 117.945 497.311 118.222 497.784C118.498 498.258 118.636 498.769 118.636 499.318C118.636 499.973 118.464 500.532 118.119 500.994C117.778 501.456 117.314 501.777 116.727 501.955V502.045C117.462 502.167 118.036 502.479 118.449 502.983C118.862 503.483 119.068 504.102 119.068 504.841C119.068 505.473 118.896 506.042 118.551 506.545C118.21 507.045 117.744 507.439 117.153 507.727C116.563 508.015 115.89 508.159 115.136 508.159ZM126.415 501.557V502.807H121.324V501.557H126.415ZM128.479 505.614V504.455L133.592 496.364H134.433V498.159H133.865L130.001 504.273V504.364H136.888V505.614H128.479ZM133.956 508V505.261V504.722V496.364H135.297V508H133.956Z" fill="white" fill-opacity="0.6"/>
</svg>
